<svg width="1442" height="8592" viewBox="0 0 1442 8592" fill="none" xmlns="http://www.w3.org/2000/svg">
<g id="Frame 34" clip-path="url(#clip0_61_839)">
<rect width="1441.07" height="8592" transform="translate(0.46582)" fill="url(#paint0_linear_61_839)"/>
<path id="Vector" fill-rule="evenodd" clip-rule="evenodd" d="M953.581 7757.67C1067.27 7870.5 1017 8071.35 941.913 8222.61C869.35 8368.79 720.923 8463.83 566.144 8538.15C405.048 8615.5 228.104 8689.26 64.4492 8643.93C-103.319 8597.46 -208.688 8456.46 -271.488 8306.14C-332.735 8159.53 -393.638 7965.59 -271.641 7839.43C-150.773 7714.45 56.3204 7808.34 230.07 7787.49C312.211 7777.63 384.426 7754.22 466.565 7750.84C636.063 7743.85 843.081 7648 953.581 7757.67Z" fill="url(#paint1_linear_61_839)"/>
<path id="Vector_2" fill-rule="evenodd" clip-rule="evenodd" d="M890.705 5982.74C989.541 5929.45 1130.25 5852.2 1215.66 5925.1C1313.73 6008.81 1174.92 6207.5 1263.65 6301.06C1373.58 6416.98 1618.81 6315.36 1710.09 6446.48C1789.18 6560.08 1744.21 6752.1 1644.39 6847.98C1540.97 6947.34 1362.33 6861.29 1227.48 6910.08C1122.96 6947.89 1069.01 7081.3 958.836 7096C843.136 7111.43 728.152 7056.63 632.716 6989.4C535.503 6920.92 418.695 6833.26 417.048 6714.35C415.327 6590.16 563.94 6522.47 624.746 6414.19C662.913 6346.22 665.014 6266.28 705.918 6199.93C756.829 6117.34 805.312 6028.78 890.705 5982.74Z" fill="url(#paint2_linear_61_839)"/>
<path id="Vector_3" fill-rule="evenodd" clip-rule="evenodd" d="M1509.51 3685.67C1409.42 3789.67 1267.48 3939.44 1134.33 3883.7C981.437 3819.7 1073.42 3522.03 928.106 3442.3C748.061 3343.52 487.732 3564.12 324.557 3439.42C183.186 3331.38 162.91 3078.67 247.481 2922.15C335.118 2759.96 587.54 2795.21 733.485 2682.59C846.597 2595.31 860.303 2410.83 989.404 2349.63C1124.98 2285.35 1287.23 2307.33 1430.43 2352.18C1576.29 2397.88 1753.67 2459.37 1802.33 2604.28C1853.15 2755.63 1697.79 2896.79 1665.83 3053.19C1645.77 3151.36 1674.55 3250.04 1650.51 3347.32C1620.59 3468.39 1595.98 3595.82 1509.51 3685.67Z" fill="url(#paint3_linear_61_839)"/>
<path id="Vector_4" fill-rule="evenodd" clip-rule="evenodd" d="M905.75 4807.02C903.256 4990.65 745.702 5166.18 568.915 5216.24C406.392 5262.26 270.419 5103.59 118.364 5029.97C11.3098 4978.14 -98.1206 4944.1 -176.982 4855.09C-281.604 4737 -444.944 4602.43 -392.037 4453.89C-338.781 4304.37 -109.932 4350.26 29.7291 4274.72C162.416 4202.96 244.516 3991.62 390.251 4030.78C535.923 4069.92 496.273 4296.87 579.693 4422.49C676.334 4568.01 908.121 4632.41 905.75 4807.02Z" fill="url(#paint4_linear_61_839)"/>
<path id="Vector_5" fill-rule="evenodd" clip-rule="evenodd" d="M340.718 1342.68C222.396 1394.59 249.586 1674.28 122.118 1653.22C-13.7182 1630.77 64.4331 1375.32 -35.3943 1280.53C-112.401 1207.41 -268.97 1292.63 -340.394 1214.05C-408.656 1138.95 -391.963 1014.95 -365.958 916.842C-340.81 821.963 -271.786 747.481 -199.208 681.382C-130.581 618.881 -53.905 550.677 38.8787 548.147C128.442 545.704 183.879 660.086 273.077 668.501C409.868 681.405 551.247 543.081 672.374 607.909C783.797 667.544 784.565 829.759 806.806 954.159C830.707 1087.84 909.98 1266.35 805.646 1353.32C684.104 1454.63 485.616 1279.11 340.718 1342.68Z" fill="url(#paint5_linear_61_839)"/>
</g>
<defs>
<linearGradient id="paint0_linear_61_839" x1="765.568" y1="1677.49" x2="720.535" y2="8592" gradientUnits="userSpaceOnUse">
<stop stop-color="#E5F2F0"/>
<stop offset="1" stop-color="#A6B1AF"/>
</linearGradient>
<linearGradient id="paint1_linear_61_839" x1="989.993" y1="7804.21" x2="-248.315" y2="8358.61" gradientUnits="userSpaceOnUse">
<stop stop-color="#3FD9BE"/>
<stop offset="0.895349" stop-color="#20E2EE"/>
</linearGradient>
<linearGradient id="paint2_linear_61_839" x1="929.803" y1="5933.61" x2="1171.89" y2="7050.3" gradientUnits="userSpaceOnUse">
<stop stop-color="#3BC5AC"/>
<stop offset="0.5" stop-color="#9BECDA"/>
<stop offset="1" stop-color="#27FFCB"/>
</linearGradient>
<linearGradient id="paint3_linear_61_839" x1="1480.92" y1="3761.15" x2="746.521" y2="2489.14" gradientUnits="userSpaceOnUse">
<stop stop-color="#3BC5AC"/>
<stop offset="0.5" stop-color="#9BECDA"/>
<stop offset="1" stop-color="#27FFCB"/>
</linearGradient>
<linearGradient id="paint4_linear_61_839" x1="929.088" y1="4762.18" x2="-379.586" y2="4406.08" gradientUnits="userSpaceOnUse">
<stop stop-color="#FFE3B5"/>
<stop offset="1" stop-color="#FFBF57"/>
</linearGradient>
<linearGradient id="paint5_linear_61_839" x1="527.876" y1="1516.02" x2="-26.5981" y2="555.647" gradientUnits="userSpaceOnUse">
<stop stop-color="#F2971E"/>
<stop offset="1" stop-color="#FFBD66"/>
</linearGradient>
<clipPath id="clip0_61_839">
<rect width="1441.07" height="8592" fill="white" transform="translate(0.46582)"/>
</clipPath>
</defs>
</svg>
