<svg width="1280" height="5248" viewBox="0 0 1280 5248" fill="none" xmlns="http://www.w3.org/2000/svg">
<g id="bg-desktop" clip-path="url(#clip0_74_1470)">
<rect width="1280" height="5247.73" fill="white"/>
<path id="Vector 1142" d="M1274.69 4758.09C1274.2 4696.64 1297.09 4588.71 1358.19 4555.6C1418.45 4522.94 1477.99 4533.1 1478.72 4528.02C1479.44 4522.94 1533.9 4506.98 1548.42 4498.99C1562.94 4491.01 1549.15 4543.99 1512.12 4570.84C1475.09 4597.7 1451.13 4588.99 1427.89 4625.27C1404.66 4661.56 1289.93 4728.33 1274.69 4758.09Z" fill="url(#paint0_linear_74_1470)" stroke="black" stroke-width="0.887041"/>
<path id="Vector 1129" d="M1521.27 4447.62C1488.75 4454.72 1416.6 4466.78 1388.22 4458.27C1352.74 4447.62 1272.02 4492.86 1246.29 4560.28C1225.71 4614.21 1219.39 4675 1218.79 4698.66C1226.78 4654.89 1259.07 4560.1 1324.35 4531C1405.96 4494.64 1521.27 4480.44 1521.27 4447.62Z" fill="url(#paint1_linear_74_1470)" stroke="black" stroke-width="0.887041"/>
<path id="Vector 1136" d="M693.666 4007.65C807.799 4123.26 1034.47 4376.3 1028.08 4463.59C1020.1 4572.7 1113.24 4362.47 1066.22 4276.42C1019.21 4190.38 844.463 4048.45 808.094 4040.47C778.999 4034.08 719.686 4015.93 693.666 4007.65Z" fill="url(#paint2_linear_74_1470)"/>
<path id="Vector 1137" d="M1244.52 4210.78C1240.08 4211.67 1057.35 4458.27 1093.72 4578.02C1130.09 4697.77 1134.53 4611.73 1150.49 4709.3C1162.97 4785.57 1165.74 4812.16 1165.59 4816.37C1168.88 4762.11 1185.15 4631.81 1224.12 4542.54C1229.44 4407.71 1193.07 4397.95 1218.79 4349.16C1239.37 4310.13 1244.52 4240.65 1244.52 4210.78Z" fill="url(#paint3_linear_74_1470)"/>
<path id="Vector 1143" d="M1275.58 4690.1C1275.58 4669.88 1281.16 4645.63 1287.29 4626.24C1294.18 4604.4 1307.98 4585.08 1323.53 4568.12C1351.14 4538 1393.35 4530.73 1432.35 4528.48C1472.04 4526.18 1506.61 4514.82 1541.17 4495.7C1553.45 4488.9 1542.79 4516.71 1541.01 4520.89C1530.48 4545.54 1513.97 4568.03 1489.91 4580.31C1477.15 4586.82 1462.95 4590.28 1450.67 4597.82C1434.02 4608.05 1418.85 4624.74 1404.26 4637.62C1387.22 4652.66 1371.3 4669.11 1353.4 4683.15C1337.84 4695.37 1319.97 4704.8 1305.05 4717.79C1263.45 4754 1233.65 4795.12 1218.27 4848.25C1206.7 4888.2 1192.43 4926.51 1185.82 4967.81C1180.89 4998.59 1171.89 5027.93 1168.78 5059.03C1167.59 5071.02 1167.12 5082.87 1166.52 5094.88C1166.18 5101.74 1167 5098.07 1173.87 5094.07" stroke="black" stroke-width="5.32225" stroke-linecap="round"/>
<path id="Vector 1133" d="M1534.58 4436.98C1500.32 4465.59 1455.59 4471.93 1414.73 4487.44C1362.76 4507.17 1307.75 4529.64 1273.79 4576.15C1245.13 4615.39 1233.12 4668.34 1222.54 4714.72C1207.77 4779.49 1191.87 4843.88 1177.99 4908.88" stroke="black" stroke-width="5.32225" stroke-linecap="round"/>
<path id="Vector 1134" d="M1534.52 4434.7C1517.6 4436.53 1503.07 4443.98 1486.68 4447.64C1469.55 4451.46 1450.25 4447.61 1432.93 4446.71C1407.35 4445.36 1377.61 4443.15 1353.51 4453.06C1316.07 4468.46 1288.7 4490.04 1266.73 4523.53C1249.14 4550.33 1247.51 4580.58 1239.12 4610.63C1230.79 4640.46 1227.87 4670.09 1222.63 4700.45C1215.5 4741.73 1201.81 4780.99 1190.85 4821.32C1180.81 4858.32 1176.42 4894.91 1176.75 4933.31C1177.04 4966.13 1173.26 5095.05 1176.76 5127.27" stroke="black" stroke-width="5.32225" stroke-linecap="round"/>
<path id="Vector 1138" d="M1171.63 5064.98C1170.37 5035.55 1174.38 5008.03 1178.65 4979.02C1184.38 4940.16 1179.77 4900.4 1174.5 4861.72C1167.14 4807.77 1154.36 4754.5 1134.81 4703.6C1120.93 4667.48 1104.6 4632.13 1089.58 4596.45C1073.3 4557.81 1055.72 4518.04 1035.44 4481.31C1030.25 4471.92 1035.83 4476.25 1039.79 4467.51C1052.15 4440.27 1063.26 4412.66 1073.25 4384.41C1086.93 4345.7 1084.89 4311.55 1073.64 4272.24C1059.36 4222.32 1029.32 4185.34 986.941 4155.72C949.603 4129.63 912.362 4102.15 873.715 4078.04C843.643 4059.28 812.488 4038.31 779.294 4025.6C755.423 4016.45 729.116 4010.94 703.876 4006.87C703.061 4006.74 689.591 4003.7 693.484 4008.94C698.799 4016.09 707.32 4021.64 713.675 4027.87C765.199 4078.33 822.817 4121.11 868.271 4177.7C909.935 4229.57 952.302 4281.77 983.476 4340.84C1002.29 4376.49 1021.93 4412.66 1032.57 4451.74C1040.7 4481.6 1054.56 4509.07 1065.92 4537.8C1074.44 4559.34 1084.22 4580.3 1091.06 4602.46C1098.43 4626.34 1105.6 4650.52 1114.62 4673.83C1133.17 4721.84 1149.31 4770.45 1165.88 4819.13C1180.7 4862.66 1185.53 4904.72 1185.88 4950.63C1186.2 4993.17 1185.79 5035.77 1189.64 5078.19C1193.39 5119.64 1201.71 5160.68 1209.04 5201.61" stroke="black" stroke-width="7.09633" stroke-linecap="round"/>
<path id="Vector 1139" d="M1244.52 4216.99C1235.03 4231.52 1224.94 4244.26 1216.66 4259.77C1189.55 4310.57 1155.64 4357.55 1131.71 4410.07C1106.41 4465.62 1092.57 4523.41 1098.72 4584.42C1101.1 4608 1104.38 4638.65 1131.42 4644.64C1136.38 4645.75 1143.68 4656.78 1145.84 4660.61C1150.19 4668.33 1149.27 4672.2 1150.68 4680.82C1156.77 4717.99 1161.17 4755.52 1168.06 4792.58C1177.51 4843.36 1174.95 4895.88 1178.34 4947.32C1179.75 4968.82 1179.96 4990.18 1180.61 5011.68C1180.91 5021.51 1181.85 5031.32 1182.29 5041.15C1182.46 5045.01 1183.12 5053.57 1182.29 5057.71C1180.48 5066.74 1174.28 5064.54 1168.06 5068.55" stroke="black" stroke-width="7.09633" stroke-linecap="round"/>
<path id="Vector 1140" d="M1242.9 4222.31C1241.82 4229.4 1244.09 4235.56 1245.68 4242.42C1248.05 4252.7 1248.37 4263.05 1247.86 4273.57C1246.44 4302.9 1231.88 4328.08 1226.03 4356.36C1220.08 4385.17 1218.59 4418.11 1223.45 4447.23C1229.97 4486.22 1242.9 4517.2 1228.02 4556.24C1205.6 4615.03 1178.78 4671.4 1174.35 4735.12C1170.82 4785.78 1173.56 4834.87 1176.04 4885.43C1178.61 4937.96 1176.29 4990.01 1182.29 5042.43C1187.69 5089.67 1195.61 5136.95 1210.76 5182.09" stroke="black" stroke-width="7.09633" stroke-linecap="round"/>
<path id="Vector 1141" d="M1228.55 4252.47C1218.6 4281.71 1207.42 4310.37 1200.7 4340.59C1191.88 4380.24 1183.5 4420.25 1176.43 4460.24C1169.17 4501.26 1169.3 4540.35 1169.47 4581.66C1169.62 4619.39 1165.95 4656.22 1164.39 4693.83C1162.64 4736.09 1165.25 4778.42 1165.79 4820.67C1166.29 4860.32 1167.41 4898.7 1171.16 4938.16C1174.84 4976.89 1177.03 5016.06 1178.42 5054.95C1179.18 5076.26 1182.89 5097.02 1180.21 5118.23" stroke="black" stroke-width="7.09633" stroke-linecap="round"/>
<path id="Vector 1162" d="M1071.63 5265.36C1071.96 5176.32 1093.73 4998.57 1178.23 4999.83C1262.72 5001.09 1289.87 5173.77 1292.88 5259.95C1250.7 5282.57 1147.39 5315.33 1071.63 5265.36Z" fill="url(#paint4_linear_74_1470)" stroke="black" stroke-width="7.09633"/>
<path id="Vector 1162_2" d="M237.648 4514.15C240.861 4516.03 317.141 4756.64 256.872 4840.07C196.602 4923.51 216.131 4855.4 177.653 4927.03C147.576 4983.03 138.321 5002.97 137.317 5006.28C149.251 4963.2 171.391 4857.5 164.921 4777.65C196.788 4671.35 227.683 4673.48 220.703 4628.66C215.118 4592.8 229.673 4537.38 237.648 4514.15Z" fill="url(#paint5_linear_74_1470)"/>
<path id="Vector 1163" d="M235.993 4518.98C239.498 4532.81 243.941 4545.42 246.236 4559.69C253.756 4606.44 267.589 4652.05 272.174 4699.29C277.023 4749.25 272.353 4797.9 251.275 4843.72C243.13 4861.43 232.388 4884.39 209.76 4881.83C205.604 4881.36 196.981 4888 194.278 4890.4C188.832 4895.24 188.516 4898.5 185.118 4904.82C170.449 4932.11 157.005 4960.13 141.746 4987.12C120.84 5024.09 108.803 5065.63 92.4313 5104.74C85.5907 5121.08 79.7277 5137.64 73.4763 5154.19C70.6188 5161.76 67.2615 5169.14 64.3001 5176.67C63.1371 5179.62 60.3386 5186.1 59.8781 5189.55C58.8742 5197.06 64.2827 5197 68.0469 5201.78" stroke="black" stroke-width="5.83611" stroke-linecap="round"/>
<path id="Vector 1164" d="M235.831 4523.55C234.78 4529.35 231.367 4533.54 228.301 4538.45C223.707 4545.81 220.696 4553.78 218.286 4562.09C211.56 4585.29 216.155 4608.76 213.152 4632.32C210.093 4656.32 202.449 4682.35 190.89 4703.69C175.408 4732.28 157.078 4752.93 158.229 4787.27C159.963 4838.98 165.77 4889.99 152.201 4940.74C141.415 4981.09 126.179 5018.54 110.75 5057.21C94.7184 5097.38 82.6216 5138.49 63.9587 5177.66C47.1407 5212.97 28.3502 5247.63 4.51569 5278.69" stroke="black" stroke-width="5.83611" stroke-linecap="round"/>
<path id="Vector 1165" d="M238.935 4550.84C238.87 4576.25 239.909 4601.52 237.068 4626.82C233.339 4660.02 229.17 4693.38 223.992 4726.37C218.681 4760.22 208.147 4790.59 196.98 4822.68C186.785 4851.98 179.802 4881.61 170.973 4911.28C161.048 4944.63 147.713 4976.85 136.014 5009.58C125.037 5040.28 113.914 5069.83 100.461 5099.53C87.2558 5128.67 75.0879 5158.56 63.6224 5188.43C57.3384 5204.81 48.9146 5219.96 45.3315 5237.17" stroke="black" stroke-width="5.83611" stroke-linecap="round"/>
<path id="Vector 1166" d="M207.668 5029.27C222.255 4985.66 264.67 4914.84 315.93 4906.25C366.494 4897.77 406.141 4919.42 407.889 4916.01C409.637 4912.59 452.037 4914.51 464.248 4912.39C476.46 4910.27 453.829 4944.41 421.111 4954.42C388.393 4964.43 373.56 4952.45 348.308 4972.48C323.056 4992.52 225.683 5011.91 207.668 5029.27Z" fill="url(#paint6_linear_74_1470)" stroke="black" stroke-width="0.543032"/>
<path id="Vector 1167" d="M285.312 4807.83C238.318 4877.81 236.692 4925.03 239.057 4967.64C241.423 5010.24 200.286 5039.87 179.421 5049.36C159.978 5053.59 120.404 5062.05 117.657 5062.03C114.222 5062 81.0692 5024.78 89.9168 4995.66C98.7644 4966.55 147.507 4893.14 180.525 4868.88C213.543 4844.62 229.037 4821.23 285.312 4807.83Z" fill="url(#paint7_linear_74_1470)" stroke="black" stroke-width="0.543032"/>
<path id="Vector 1168" d="M25.6004 4584.31C102.973 4624.85 238.209 4740.33 160.177 4877.97C116.394 4934.59 90.5357 4952.05 83.0793 4953.7C88.112 4852.08 83.6621 4635.94 25.6004 4584.31Z" fill="url(#paint8_linear_74_1470)"/>
<path id="Vector 1169" d="M239.387 4949.95C249.564 4936.18 273.255 4914.88 288.365 4906.66C315.188 4892.07 346.79 4897.18 374.912 4905.05C403.528 4913.06 430.725 4913.42 459.793 4908.29C470.127 4906.47 455.842 4923.53 453.566 4926.06C440.142 4940.93 423.011 4952.82 403.022 4955.66C392.421 4957.16 381.541 4956.17 371.036 4958.52C356.781 4961.71 342.004 4969.82 328.563 4975.39C312.865 4981.88 297.625 4989.64 281.56 4995.23C267.591 5000.08 252.67 5002.41 238.971 5007.97C200.774 5023.47 169.726 5045.31 145.962 5079.13C128.089 5104.57 108.703 5128.19 94.004 5155.77C83.0477 5176.33 69.5701 5194.89 59.8228 5216.12C56.0668 5224.3 52.8644 5232.57 49.5257 5240.91C47.617 5245.68 49.0881 5243.29 54.9147 5242.12" stroke="black" stroke-width="3.80123" stroke-linecap="round"/>
<path id="Vector 1170" d="M116.726 5052.06C134.628 5055.05 155.458 5049.34 172.178 5043.28C194.206 5035.3 212.437 5024.48 225.268 5004.22C237.19 4985.41 237.373 4964.41 237.953 4942.94C238.847 4909.81 239.813 4877.33 254.384 4846.95C261.309 4832.52 272.104 4818.97 281.579 4806.02C282.379 4804.93 287.258 4798.12 283.695 4799.86C270.84 4806.14 256.152 4807.24 243.061 4813.78C221.751 4824.45 204.209 4837.48 186.569 4853.46C168.912 4869.46 151.85 4887.95 136.467 4906.12C126.902 4917.41 116.936 4928.49 107.126 4939.55C96.3783 4951.67 92.9849 4966.65 91.2671 4982.4C90.0405 4993.64 87.4071 5004.59 90.1849 5015.84C92.6728 5025.9 103.085 5028.12 106.442 5037.05C108.462 5042.42 102.934 5047.81 101.876 5052.58C98.9796 5065.62 98.1258 5079.48 93.794 5092.1C84.0986 5120.34 76.0631 5149.21 66.6763 5177.58C53.7757 5216.58 37.7984 5255.01 27.6539 5294.77" stroke="black" stroke-width="3.80123" stroke-linecap="round"/>
<path id="Vector 1171" d="M260.684 4816.71C260.491 4822.69 251.92 4831.99 248.823 4837.13C242.263 4848.03 236.476 4859.61 229.597 4870.28C216.085 4891.23 197.723 4908.2 181.974 4927.42C169.308 4942.87 158.345 4960.49 148.037 4977.58C140.51 4990.06 135.523 5003.08 129.353 5016.21C118.904 5038.43 109.846 5060.45 102.357 5083.87" stroke="black" stroke-width="3.80123" stroke-linecap="round"/>
<path id="Vector 1172" d="M184.764 4770.24C184.288 4772.52 185.259 4768.72 184.87 4766.58C183.313 4757.98 182.923 4749.17 180.825 4740.68C173.633 4711.57 156.859 4685.29 138.324 4662.27C121.48 4641.34 102.06 4623.58 79.3472 4609.08C63.9917 4599.29 47.6714 4591.98 31.6404 4583.51C31.1902 4583.28 37.4372 4589.9 38.5089 4591.49C48.6327 4606.49 53.1546 4623.65 58.6657 4640.6C65.4576 4661.48 76.3764 4680.81 79.1008 4702.88C83.0333 4734.75 86.0002 4767 86.8011 4799.09C87.7979 4839.03 93.5427 4878.9 90.7721 4918.84C88.1934 4956.02 86.0426 4993.19 84.2954 5030.42C82.6819 5064.8 77.5927 5098.8 74.4812 5133.05C71.0493 5170.84 61.358 5209.89 47.4538 5245.17C39.5284 5265.27 31.138 5286.39 20.2279 5305.07C18.5321 5307.97 9.03198 5317.92 16.0288 5315.43" stroke="black" stroke-width="4.34426" stroke-linecap="round"/>
<path id="Vector 1173" d="M56.0458 4611.03C62.6092 4612.1 65.5632 4617.73 69.3461 4622.75C74.8385 4630.04 80.576 4637.07 86.4869 4644.03C99.502 4659.34 107.425 4681.16 111.838 4700.45C115.113 4714.77 112.202 4728.23 112.648 4742.57C113.464 4768.79 113.964 4794.6 113.374 4820.82C112.992 4837.82 112.874 4854.84 112.601 4871.85C112.361 4886.82 111.023 4897.28 103.484 4910.18" stroke="black" stroke-width="4.34426" stroke-linecap="round"/>
<path id="Vector 1174" d="M79.7773 5337.74C97.2882 5286.12 120.017 5178.88 70.8437 5162.81C21.6706 5146.74 -28.376 5241.33 -47.2527 5290.63C-27.3245 5312.11 25.981 5351.62 79.7773 5337.74Z" fill="url(#paint9_linear_74_1470)" stroke="black" stroke-width="3.80123"/>
<path id="Vector 1162_3" d="M1361.55 591.656C1238.81 679.703 1035.02 910.031 1201.79 1126.96C1290.41 1213.38 1338.89 1237.05 1352.06 1238.08C1318.97 1065.27 1274.55 694.049 1361.55 591.656Z" fill="url(#paint10_linear_74_1470)"/>
<path id="Vector 1163_2" d="M520.607 1007.67C683.79 1062.01 1019.12 1192.03 1054.98 1277.47C1099.8 1384.26 1086.81 1141.18 1001.16 1082.54C915.506 1023.9 682.494 973.817 644.342 983.734C613.82 991.669 549.135 1003 520.607 1007.67Z" fill="url(#paint11_linear_74_1470)"/>
<path id="Vector 1164_2" d="M1137.92 935.038C1134.16 938.004 1080.05 1258.4 1171.83 1353.96C1263.61 1449.51 1226.51 1366.19 1288.4 1450.61C1336.78 1516.59 1352.15 1540.36 1354.02 1544.41C1331.09 1491.62 1283.92 1360.85 1277.86 1257.9C1218.18 1128.11 1179.18 1136.35 1180.04 1077.97C1180.74 1031.26 1152.25 963.221 1137.92 935.038Z" fill="url(#paint12_linear_74_1470)"/>
<path id="Vector 1165_2" d="M1479.02 1776.12C1463.71 1748.95 1454.29 1721.06 1444.4 1691.63C1431.16 1652.2 1407.73 1616.9 1384.19 1582.92C1351.36 1535.54 1313.73 1491.41 1270.86 1452.76C1240.44 1425.33 1208.06 1399.8 1176.76 1373.34C1142.86 1344.68 1107.19 1315.59 1070.42 1290.67C1061.02 1284.29 1068.36 1285.7 1067.91 1275.55C1066.5 1243.91 1063.74 1212.53 1059.61 1181.08C1053.94 1137.97 1035.63 1106.73 1006.15 1075.03C968.718 1034.77 922.627 1014.29 868.42 1006.67C820.664 999.967 772.335 991.907 724.295 987.701C686.915 984.429 647.453 979.591 610.026 983.519C583.111 986.345 555.637 993.76 529.867 1002.03C529.035 1002.3 514.867 1005.9 521.054 1008.97C529.498 1013.17 540.206 1014.32 549.189 1017.15C622.027 1040.04 696.931 1052.77 766.98 1084.36C831.189 1113.32 896.219 1142.25 953.983 1183.04C988.841 1207.65 1024.73 1232.36 1053.52 1264.14C1075.52 1288.41 1101.79 1307.68 1126.3 1329.34C1144.67 1345.58 1163.96 1360.66 1181.05 1378.3C1199.46 1397.31 1217.83 1416.67 1237.52 1434.35C1278.07 1470.75 1316.62 1508.88 1355.63 1546.87C1390.5 1580.84 1415.23 1618.21 1437.6 1661.37C1458.32 1701.36 1478.37 1741.75 1502.35 1779.94C1525.79 1817.26 1553.33 1851.99 1579.88 1887.1" stroke="black" stroke-width="7.5128" stroke-linecap="round"/>
<path id="Vector 1166_2" d="M1140.9 940.897C1138.91 959.157 1135.5 976.023 1135.13 994.63C1133.93 1055.58 1124.47 1116.19 1127.09 1177.23C1129.87 1241.79 1144.54 1302.97 1179.62 1357.6C1193.18 1378.71 1210.99 1406.06 1239.37 1398.74C1244.59 1397.4 1256.77 1404.31 1260.64 1406.89C1268.45 1412.09 1269.44 1416.19 1274.91 1423.63C1298.5 1455.79 1320.66 1489.1 1344.94 1520.77C1378.22 1564.15 1401.01 1614.94 1428.89 1661.86C1440.54 1681.47 1450.98 1701.53 1461.92 1721.51C1466.92 1730.64 1472.52 1739.45 1477.64 1748.51C1479.66 1752.08 1484.38 1759.83 1485.59 1764.14C1488.21 1773.53 1481.31 1774.43 1477.37 1781.2" stroke="black" stroke-width="7.5128" stroke-linecap="round"/>
<path id="Vector 1167_2" d="M1141.92 946.698C1144.3 953.899 1149.4 958.626 1154.19 964.34C1161.37 972.902 1166.63 982.52 1171.2 992.684C1183.93 1021.05 1182.28 1051.79 1190.33 1081.29C1198.53 1111.33 1212.94 1143.14 1231.5 1168.28C1256.36 1201.95 1283.43 1224.98 1288.11 1268.96C1295.17 1335.2 1296.91 1401.26 1323.31 1463.53C1344.29 1513.03 1370.42 1558.04 1397.02 1604.56C1424.66 1652.89 1447.45 1703.13 1478.26 1749.73C1506.02 1791.71 1536.19 1832.53 1572.14 1867.86" stroke="black" stroke-width="7.5128" stroke-linecap="round"/>
<path id="Vector 1168_2" d="M1142.86 982.044C1147.49 1014.41 1150.7 1046.82 1158.85 1078.56C1169.56 1120.22 1180.85 1161.99 1193.37 1203.12C1206.2 1245.32 1225.07 1282.14 1245.06 1321.05C1263.31 1356.57 1277.52 1393.1 1294.09 1429.33C1312.72 1470.06 1335.5 1508.75 1356.28 1548.37C1375.77 1585.54 1395.25 1621.22 1417.72 1656.66C1439.78 1691.45 1460.65 1727.36 1480.62 1763.39C1491.56 1783.14 1505.02 1800.95 1512.67 1822.25" stroke="black" stroke-width="7.5128" stroke-linecap="round"/>
<path id="Vector 1169_2" d="M1133.75 948.388C1135.11 952.175 1132.54 945.904 1132.69 942.137C1133.28 927.048 1131.83 911.867 1133.38 896.814C1138.68 845.231 1161.08 796.186 1187.28 752.295C1211.09 712.407 1240.07 677.308 1275.47 647.021C1299.41 626.545 1325.6 610.101 1351.02 591.745C1351.73 591.23 1342.63 604.079 1341.17 607.056C1327.45 635.178 1323.84 665.66 1318.48 696.006C1311.88 733.405 1297.83 769.13 1298.48 807.592C1299.42 863.109 1302.1 919.053 1308.46 974.203C1316.37 1042.84 1316.13 1112.51 1330.5 1180.24C1343.86 1243.28 1356.49 1306.41 1368.45 1369.75C1379.49 1428.24 1396.4 1485.24 1409.97 1543.16C1424.95 1607.03 1450.95 1671.57 1483.25 1728.64C1501.67 1761.17 1521.12 1795.31 1544.3 1824.67C1547.9 1829.23 1566.57 1843.99 1553.99 1841.41" stroke="black" stroke-width="7.5128" stroke-linecap="round"/>
<path id="Vector 1170_2" d="M1246.71 1186.29C1255.23 1199.53 1268.07 1209 1282.3 1215.88C1296.01 1222.51 1310.85 1227.38 1325.34 1232.04C1328.97 1233.21 1343.23 1234.11 1338.94 1238.43" stroke="black" stroke-width="7.5128" stroke-linecap="round"/>
<path id="Vector 1171_2" d="M1315.85 644.74C1304.87 648.154 1301.16 658.507 1295.89 668.015C1288.24 681.82 1280.11 695.252 1271.66 708.585C1253.06 737.944 1244.75 777.213 1241.83 811.315C1239.67 836.619 1247.9 858.97 1250.59 883.642C1255.51 928.743 1260.86 973.056 1268.19 1017.82C1272.94 1046.84 1277.24 1075.96 1281.8 1105.02C1285.81 1130.61 1290.62 1148.19 1306.64 1168.47" stroke="black" stroke-width="7.5128" stroke-linecap="round"/>
<path id="Vector 1162_4" d="M547.888 1820.38C543.7 1818.37 241.582 1908.08 197.566 2028.81C153.55 2149.55 210.268 2081.65 163.184 2171.6C126.379 2241.91 112.251 2265.44 109.525 2268.81C145.7 2226.29 239.435 2129.37 326.492 2080.12C414.033 1972.73 390.198 1942.28 441.41 1918.1C482.379 1898.76 529.466 1844.9 547.888 1820.38Z" fill="url(#paint13_linear_74_1470)"/>
<path id="Vector 1163_3" d="M544.058 1825.48C527.307 1831.54 511.166 1835.78 494.805 1843.41C441.217 1868.39 384.395 1886.03 332.354 1914.39C277.319 1944.37 230.31 1983.28 197.719 2037.16C185.126 2057.98 168.917 2085.16 187.41 2106.76C190.806 2110.73 189.989 2124.29 189.399 2128.76C188.209 2137.78 185.061 2140.39 180.908 2148.33C162.983 2182.61 143.437 2216.13 126.233 2250.81C102.662 2298.31 68.1644 2339.85 39.2123 2384.16C27.1155 2402.68 14.1059 2420.34 1.37568 2438.4C-4.44337 2446.65 -9.7175 2455.29 -15.4247 2463.62C-17.6659 2466.9 -22.4014 2474.33 -25.6389 2477.22C-32.6967 2483.51 -36.4228 2477.88 -44.0029 2477.34" stroke="black" stroke-width="7.28667" stroke-linecap="round"/>
<path id="Vector 1164_3" d="M539.444 1828.85C534.189 1833.99 532.252 1840.46 529.321 1847.07C524.93 1856.97 518.803 1865.66 511.9 1873.98C492.64 1897.18 465.161 1908.87 442.914 1928.48C420.251 1948.45 398.707 1974.58 384.741 2001.48C366.036 2037.51 357.539 2070.91 321.243 2093.78C266.578 2128.21 209.789 2157.94 166.839 2207.51C132.693 2246.93 104.657 2288.91 75.5052 2331.94C45.2161 2376.64 11.1978 2417.94 -16.2169 2464.67C-40.9217 2506.78 -63.5845 2550.48 -78.9977 2596.88" stroke="black" stroke-width="7.28667" stroke-linecap="round"/>
<path id="Vector 1165_3" d="M509.062 1844.76C482.854 1862.62 456.005 1879.25 431.846 1899.9C400.142 1927.02 368.585 1954.69 338.113 1983.15C306.851 2012.35 282.841 2044.51 257.494 2078.53C234.352 2109.59 208.618 2137.57 184.141 2167.47C156.628 2201.09 132.665 2237.44 107.036 2272.46C82.9899 2305.31 60.2377 2337.51 38.9731 2372.21C18.1004 2406.28 -4.26549 2439.79 -27.1129 2472.56C-39.6351 2490.53 -49.3958 2509.85 -64.6759 2525.61" stroke="black" stroke-width="7.28667" stroke-linecap="round"/>
<path id="Vector 1166_3" d="M36.4937 2212.2C71.3409 2166.58 114.827 2073.13 87.8022 2014.13C61.1437 1955.93 10.996 1930.12 13.3052 1925.92C15.6143 1921.72 -16.0761 1879.25 -22.436 1865.14C-28.7959 1851.03 -48.2314 1898.34 -35.6592 1939.16C-23.0869 1979.99 -0.312607 1986.93 -3.33373 2027.06C-6.35485 2067.2 41.8113 2181.42 36.4937 2212.2Z" fill="url(#paint14_linear_74_1470)" stroke="black" stroke-width="0.678003"/>
<path id="Vector 1167_3" d="M210.974 1976.83C171.558 2074.43 123.902 2109.18 78.2061 2136.58C32.5099 2163.98 30.7054 2227.25 35.5152 2255.46C44.7596 2278.52 63.7359 2325.35 65.6859 2328.17C68.1234 2331.7 129.814 2339.9 153.708 2310.36C177.601 2280.82 219.327 2179.02 221.273 2127.9C223.22 2076.78 236.539 2044.39 210.974 1976.83Z" fill="url(#paint15_linear_74_1470)" stroke="black" stroke-width="0.678003"/>
<path id="Vector 1168_3" d="M623.909 2088.69C527.817 2037.11 313.732 1978.23 226.13 2155.3C198.278 2240.21 198.35 2279.17 201.867 2288.03C303.369 2211.65 529.879 2064.84 623.909 2088.69Z" fill="url(#paint16_linear_74_1470)"/>
<path id="Vector 1169_3" d="M96.2528 2123.85C103.352 2103.69 108.78 2064.28 106.69 2042.91C102.979 2004.97 75.5639 1975.88 47.7287 1952.33C19.4034 1928.37 -0.0166497 1900.51 -15.0792 1866.87C-20.4343 1854.91 -28.0662 1881.63 -29.0789 1885.75C-35.0503 1910.05 -35.3347 1936.08 -24.2662 1958.73C-18.3965 1970.74 -9.74712 1981.29 -4.81806 1993.79C1.87038 2010.76 3.83297 2031.71 7.49911 2049.5C11.7808 2070.28 14.4345 2091.47 19.9153 2111.98C24.6811 2129.82 32.7241 2146.87 36.5744 2164.93C47.3108 2215.26 46.4897 2262.65 28.1799 2310.9C14.4092 2347.19 3.5781 2383.77 -14.6357 2418.29C-28.2119 2444.01 -37.9528 2470.94 -53.0689 2495.89C-58.8938 2505.5 -65.193 2514.6 -71.4768 2523.89C-75.069 2529.21 -73.6273 2526.01 -76.5046 2519.17" stroke="black" stroke-width="4.74602" stroke-linecap="round"/>
<path id="Vector 1170_3" d="M76.6402 2322.15C61.0086 2305.75 52.3199 2280.22 46.868 2258.7C39.6849 2230.34 38.1045 2203.91 50.0494 2176.46C61.1485 2150.96 82.7204 2136.06 104.508 2120.42C138.117 2096.3 171.008 2072.55 192.201 2036.21C202.272 2018.94 208.709 1998.29 215.457 1979.43C216.027 1977.83 219.65 1968.02 220.345 1972.92C222.855 1990.61 232.012 2006.56 234.414 2024.68C238.323 2054.17 237.142 2081.43 232.976 2110.86C228.806 2140.31 221.652 2170.9 213.652 2199.52C208.678 2217.32 204.21 2235.38 199.65 2253.27C194.653 2272.86 181.548 2286.86 166.474 2299.67C155.71 2308.82 146.236 2319.21 132.671 2324.21C120.522 2328.69 110.939 2319.48 99.3607 2322.27C92.3973 2323.94 90.6923 2333.43 86.5091 2337.86C75.0564 2349.99 61.3304 2360.59 51.3244 2373.9C28.9294 2403.7 4.71554 2432.23 -18.0354 2461.81C-49.303 2502.46 -77.8339 2545.89 -111.821 2584.23" stroke="black" stroke-width="4.74602" stroke-linecap="round"/>
<path id="Vector 1171_3" d="M219.045 2008.51C212.994 2012.9 209.392 2028.27 206.243 2035.07C199.573 2049.49 191.661 2063.58 185.455 2078.16C173.265 2106.8 168.582 2137.67 159.758 2167.41C152.661 2191.32 142.13 2214.99 131.682 2237.62C124.053 2254.14 114.089 2268.42 104.85 2283.99C89.2015 2310.35 72.7866 2335.14 53.823 2359.29" stroke="black" stroke-width="4.74602" stroke-linecap="round"/>
<path id="Vector 1172_2" d="M320.252 2054.43C318.23 2056.51 321.477 2052.85 323.966 2051.75C333.937 2047.34 343.315 2041.57 353.565 2037.79C388.688 2024.83 427.601 2023.76 464.38 2026.79C497.805 2029.54 529.768 2037.17 560.656 2050.49C581.539 2059.5 600.524 2071.25 620.501 2081.89C621.062 2082.19 609.84 2080.37 607.448 2080.38C584.855 2080.42 563.948 2087.77 542.574 2093.94C516.233 2101.55 488.61 2103.8 463.885 2116.45C428.196 2134.71 392.785 2154.23 359.056 2175.88C317.079 2202.83 271.842 2224.82 232.504 2255.66C195.89 2284.37 158.982 2312.62 121.727 2340.51C87.3223 2366.26 55.7445 2395.34 22.519 2422.55C-14.1267 2452.56 -47.6978 2489.93 -74.4203 2529.01C-89.6521 2551.29 -105.602 2574.76 -117.258 2599.11C-119.07 2602.9 -122.706 2619.69 -125.03 2610.71" stroke="black" stroke-width="5.42402" stroke-linecap="round"/>
<path id="Vector 1173_2" d="M574.971 2075.94C569.267 2069.9 561.379 2070.8 553.541 2070.4C542.16 2069.83 530.868 2068.83 519.54 2067.59C494.596 2064.87 466.498 2071.96 443.466 2080.91C426.377 2087.56 414.503 2099.99 399.366 2109.58C371.693 2127.1 344.672 2144.66 317.984 2163.64C300.678 2175.95 283.17 2187.99 265.783 2200.19C250.476 2210.92 240.605 2219.63 232.555 2236.46" stroke="black" stroke-width="5.42402" stroke-linecap="round"/>
<path id="Vector 1162_5" d="M1019.49 3177.32C962.831 3128.02 844.449 3063.45 765.164 3093.81C686.954 3123.77 649.071 3187.09 643.778 3183.72C638.485 3180.36 580.387 3218.19 561.436 3225.32C542.485 3232.45 602.63 3261.77 656.985 3248.76C711.34 3235.75 722.297 3206.59 774.447 3213.88C826.598 3221.17 979.748 3167.81 1019.49 3177.32Z" fill="url(#paint17_linear_74_1470)" stroke="black" stroke-width="0.887041"/>
<path id="Vector 1163_4" d="M726.737 2929.88C850.876 2989.49 892.273 3054.6 924.241 3116.55C956.208 3178.5 1038.67 3186.13 1075.9 3182.21C1106.78 3172.06 1169.5 3151.19 1173.35 3148.88C1178.16 3145.99 1194 3066.13 1157.43 3032.47C1120.85 2998.81 991.422 2935.84 924.84 2929.03C858.258 2922.23 817.07 2902.14 726.737 2929.88Z" fill="url(#paint18_linear_74_1470)" stroke="black" stroke-width="0.887041"/>
<path id="Vector 1164_4" d="M1169.98 2641.45C1154.21 2670.77 1116.44 2733.41 1091.51 2749.43C1060.34 2769.46 1042.19 2860.19 1076.66 2923.59C1104.24 2974.3 1146.3 3018.65 1163.88 3034.48C1135.83 2999.96 1084.84 2913.77 1105.21 2845.26C1130.67 2759.62 1194.9 2662.8 1169.98 2641.45Z" fill="url(#paint19_linear_74_1470)" stroke="black" stroke-width="0.887041"/>
<path id="Vector 1165_4" d="M909.127 3091.93C883.396 3080.98 832.391 3070.6 804.31 3071.55C754.462 3073.23 714.2 3106.6 681.131 3140.98C647.48 3175.96 609.485 3199 564.315 3215.86C548.256 3221.85 582.504 3234.05 587.799 3235.71C619.02 3245.53 652.983 3248.08 683.477 3235.51C699.649 3228.85 714.143 3218.44 730.88 3213.05C753.591 3205.73 781.119 3204.91 804.65 3201.61C832.132 3197.75 860.017 3196.05 887.26 3190.61C910.949 3185.87 933.888 3176.79 957.778 3173.27C1024.39 3163.45 1086.19 3168.48 1147.67 3196.41C1193.9 3217.41 1240.76 3234.61 1284.31 3261.26C1316.76 3281.14 1351.11 3296.1 1382.42 3317.92C1394.49 3326.32 1405.84 3335.31 1417.46 3344.29C1424.09 3349.42 1420.04 3347.27 1410.87 3350.46" stroke="black" stroke-width="6.20929" stroke-linecap="round"/>
<path id="Vector 1166_4" d="M1166.4 3134.08C1143.68 3153.12 1109.62 3162.33 1081.07 3167.66C1043.44 3174.67 1008.81 3174.53 973.966 3156.64C941.591 3140.03 923.941 3110.62 905.336 3080.87C876.638 3034.97 848.373 2990.05 802.693 2959.35C780.985 2944.76 754.565 2934.63 730.498 2924.25C728.465 2923.37 715.955 2917.82 722.413 2917.32C745.717 2915.52 767.303 2904.89 791.157 2903.27C829.991 2900.63 865.482 2904.44 903.559 2912.33C941.674 2920.23 981.009 2932.13 1017.71 2944.96C1040.54 2952.94 1063.74 2960.28 1086.72 2967.72C1111.89 2975.88 1129.07 2994.16 1144.54 3014.91C1155.58 3029.73 1168.36 3042.96 1173.76 3061.09C1178.6 3077.33 1165.78 3089.07 1168.45 3104.42C1170.05 3113.65 1182.3 3116.67 1187.74 3122.5C1202.62 3138.47 1215.3 3157.27 1231.86 3171.44C1268.9 3203.17 1304.13 3237.16 1340.85 3269.34C1391.32 3313.55 1445.65 3354.42 1492.87 3402" stroke="black" stroke-width="6.20929" stroke-linecap="round"/>
<path id="Vector 1167_4" d="M768.767 2921.99C773.997 2930.25 793.763 2936.24 802.385 2940.92C820.65 2950.83 838.388 2962.33 856.908 2971.65C893.287 2989.96 933.201 2998.64 971.289 3012.65C1001.92 3023.91 1031.95 3039.63 1060.62 3055.16C1081.56 3066.5 1099.37 3080.7 1118.92 3094.06C1152.04 3116.69 1183.04 3140.19 1212.98 3166.96" stroke="black" stroke-width="6.20929" stroke-linecap="round"/>
<path id="Vector 1168_4" d="M1170.55 2624.42C1169.99 2669.06 1145.71 2707.16 1130.91 2748.27C1112.09 2800.58 1093.37 2856.98 1106.6 2913.02C1117.77 2960.31 1150.17 3003.89 1178.51 3042.09C1218.1 3095.45 1256.67 3149.4 1297.01 3202.23" stroke="black" stroke-width="6.20929" stroke-linecap="round"/>
<path id="Vector 1169_4" d="M1168.77 2622.98C1159.16 2637.03 1155.37 2652.91 1147.48 2667.73C1139.24 2683.24 1123.77 2695.39 1111.81 2707.96C1094.15 2726.51 1073.13 2747.65 1064.97 2772.41C1052.31 2810.86 1050.9 2845.69 1062.04 2884.16C1070.96 2914.95 1092.87 2935.87 1110.24 2961.79C1127.48 2987.52 1148.09 3009.01 1167.73 3032.74C1194.44 3065.01 1215.36 3100.95 1238.87 3135.5C1260.43 3167.2 1285.37 3194.33 1314.75 3219.06C1339.87 3240.19 1435.32 3326.92 1462.07 3345.22" stroke="black" stroke-width="6.20929" stroke-linecap="round"/>
<path id="Vector 1174_2" d="M139.607 743.868C151.715 702.937 188.75 635.844 236.027 626.195C282.662 616.677 320.153 635.467 321.663 632.238C323.173 629.009 362.574 629.409 373.834 627.04C385.094 624.671 365.214 657.088 335.187 667.445C305.159 677.802 291.005 667.17 268.232 686.587C245.46 706.003 155.754 727.177 139.607 743.868Z" fill="url(#paint20_linear_74_1470)" stroke="black" stroke-width="0.504124"/>
<path id="Vector 1175" d="M204.399 535.881C163.088 602.351 163.123 646.205 166.712 685.66C170.3 725.115 133.103 753.947 114.056 763.431C96.1549 767.994 59.7161 777.138 57.1662 777.205C53.979 777.288 22.003 743.842 29.2594 716.541C36.5158 689.24 79.3371 619.541 109.177 595.953C139.016 572.364 152.627 550.159 204.399 535.881Z" fill="url(#paint21_linear_74_1470)" stroke="black" stroke-width="0.504124"/>
<path id="Vector 1176" d="M-96.126 532.933C-79.617 542.174 -42.3884 560.673 -25.5463 560.74C-4.49359 560.825 31.9066 598.78 34.7356 639.69C36.9988 672.419 30.3782 706.518 26.785 719.476C29.6867 694.363 27.8202 637.48 -2.8602 610.857C-41.2107 577.578 -101.558 550.777 -96.126 532.933Z" fill="url(#paint22_linear_74_1470)" stroke="black" stroke-width="0.504124"/>
<path id="Vector 1177" d="M166.44 669.241C175.431 656.137 196.714 635.592 210.464 627.474C234.873 613.062 264.36 616.766 290.707 623.151C317.519 629.648 342.764 629.089 369.564 623.382C379.092 621.354 366.397 637.654 364.368 640.069C352.4 654.309 336.895 665.896 318.443 669.183C308.657 670.926 298.53 670.36 288.86 672.884C275.739 676.309 262.295 684.323 250.006 689.923C235.655 696.463 221.769 704.163 207.048 709.869C194.247 714.832 180.479 717.482 167.952 723.087C133.02 738.717 104.929 759.992 83.9874 792.148C68.2373 816.332 51.0237 838.879 38.2886 864.952C28.7961 884.386 16.8989 902.046 8.55 922.063C5.33283 929.776 2.63204 937.549 -0.192689 945.398C-1.80751 949.885 -0.520963 947.618 4.84678 946.347" stroke="black" stroke-width="3.52887" stroke-linecap="round"/>
<path id="Vector 1178" d="M55.977 767.989C72.6838 770.179 91.823 764.199 107.137 758.033C127.313 749.91 143.873 739.269 155.115 720.058C165.561 702.209 165.044 682.723 164.88 662.781C164.626 632.021 164.46 601.857 176.985 573.194C182.937 559.573 192.51 546.653 200.877 534.328C201.583 533.287 205.887 526.809 202.638 528.541C190.917 534.792 177.326 536.287 165.395 542.791C145.972 553.379 130.123 566.043 114.281 581.451C98.4218 596.874 83.1966 614.583 69.5194 631.939C61.014 642.732 52.1301 653.335 43.3909 663.918C33.8157 675.513 31.1572 689.521 30.0786 704.189C29.3084 714.663 27.2233 724.91 30.1681 735.248C32.8057 744.508 42.5384 746.224 45.9452 754.396C47.9941 759.311 43.0425 764.498 42.2168 768.953C39.9559 781.15 39.617 794.036 36.0107 805.883C27.9392 832.4 21.4283 859.451 13.6475 886.083C2.95403 922.685 -10.6124 958.865 -18.7238 996.084" stroke="black" stroke-width="3.52887" stroke-linecap="round"/>
<path id="Vector 1179" d="M181.84 544.928C181.857 550.487 174.209 559.39 171.504 564.265C165.774 574.592 160.784 585.522 154.751 595.643C142.9 615.524 126.42 631.874 112.436 650.214C101.191 664.962 91.5952 681.668 82.5908 697.865C76.0159 709.692 71.8152 721.935 66.5202 734.311C57.5525 755.27 49.8691 775.996 43.687 797.973" stroke="black" stroke-width="3.52887" stroke-linecap="round"/>
<path id="Vector 1180" d="M-101.599 524.943C-87.7054 546.172 -64.4346 557.022 -44.7892 572.214C-19.7955 591.542 6.39096 612.862 17.1589 643.767C26.2446 669.844 24.0144 700.626 22.0899 727.591C19.402 765.253 17.3864 802.892 14.1774 840.529" stroke="black" stroke-width="3.52887" stroke-linecap="round"/>
<path id="Vector 1181" d="M-101.189 523.711C-92.2904 527.511 -85.6259 533.964 -77.3198 538.665C-68.636 543.58 -57.5108 544.682 -47.9402 547.055C-33.8095 550.559 -17.2779 554.276 -5.81314 563.654C11.9948 578.222 23.3019 594.485 29.7084 616.331C34.835 633.812 30.7163 650.528 30.3048 668.252C29.8961 685.852 26.5766 702.444 24.4043 719.815C21.4499 743.44 22.3934 767.054 21.6748 790.794C21.0156 812.572 17.3434 833.191 10.8082 854.013C5.2215 871.813 -14.0565 942.526 -21.2929 959.468" stroke="black" stroke-width="3.52887" stroke-linecap="round"/>
</g>
<defs>
<linearGradient id="paint0_linear_74_1470" x1="1414.39" y1="4498.18" x2="1414.39" y2="4758.09" gradientUnits="userSpaceOnUse">
<stop stop-color="#35CC32"/>
<stop offset="1" stop-color="#175716"/>
</linearGradient>
<linearGradient id="paint1_linear_74_1470" x1="1370.03" y1="4447.62" x2="1370.03" y2="4698.66" gradientUnits="userSpaceOnUse">
<stop stop-color="#36B733"/>
<stop offset="1" stop-color="#1C431B"/>
</linearGradient>
<linearGradient id="paint2_linear_74_1470" x1="886.606" y1="4007.65" x2="886.606" y2="4494.28" gradientUnits="userSpaceOnUse">
<stop stop-color="#3BDA38"/>
<stop offset="0.994792" stop-color="#1D961B"/>
</linearGradient>
<linearGradient id="paint3_linear_74_1470" x1="1166.73" y1="4210.78" x2="1166.73" y2="4816.63" gradientUnits="userSpaceOnUse">
<stop stop-color="#3BDA38"/>
<stop offset="1" stop-color="#1B701A"/>
</linearGradient>
<linearGradient id="paint4_linear_74_1470" x1="1223.9" y1="5001.28" x2="1168.15" y2="5289.64" gradientUnits="userSpaceOnUse">
<stop stop-color="#FFD6B5"/>
<stop offset="1" stop-color="#6C3E19"/>
</linearGradient>
<linearGradient id="paint5_linear_74_1470" x1="298.158" y1="4534.93" x2="136.361" y2="5006.18" gradientUnits="userSpaceOnUse">
<stop stop-color="#3BDA38"/>
<stop offset="1" stop-color="#1B701A"/>
</linearGradient>
<linearGradient id="paint6_linear_74_1470" x1="369.635" y1="4879.26" x2="306.486" y2="5063.19" gradientUnits="userSpaceOnUse">
<stop stop-color="#35CC32"/>
<stop offset="1" stop-color="#175716"/>
</linearGradient>
<linearGradient id="paint7_linear_74_1470" x1="232.802" y1="4789.8" x2="137.04" y2="5068.72" gradientUnits="userSpaceOnUse">
<stop stop-color="#30B82E"/>
<stop offset="1" stop-color="#378536"/>
</linearGradient>
<linearGradient id="paint8_linear_74_1470" x1="132.493" y1="4621.01" x2="25.1045" y2="4933.8" gradientUnits="userSpaceOnUse">
<stop stop-color="#3BDA38"/>
<stop offset="1" stop-color="#2C702B"/>
</linearGradient>
<linearGradient id="paint9_linear_74_1470" x1="44.1131" y1="5154.57" x2="19.0634" y2="5332.62" gradientUnits="userSpaceOnUse">
<stop stop-color="#FFD6B5"/>
<stop offset="1" stop-color="#6C3E19"/>
</linearGradient>
<linearGradient id="paint10_linear_74_1470" x1="1187.33" y1="680.243" x2="1446.55" y2="1190.04" gradientUnits="userSpaceOnUse">
<stop stop-color="#3BDA38"/>
<stop offset="1" stop-color="#2C702B"/>
</linearGradient>
<linearGradient id="paint11_linear_74_1470" x1="702.684" y1="915.088" x2="936.196" y2="1374.32" gradientUnits="userSpaceOnUse">
<stop stop-color="#3BDA38"/>
<stop offset="0.994792" stop-color="#1D961B"/>
</linearGradient>
<linearGradient id="paint12_linear_74_1470" x1="1064.51" y1="972.366" x2="1355.22" y2="1544.1" gradientUnits="userSpaceOnUse">
<stop stop-color="#3BDA38"/>
<stop offset="1" stop-color="#1B701A"/>
</linearGradient>
<linearGradient id="paint13_linear_74_1470" x1="484.031" y1="1772.39" x2="110.301" y2="2269.72" gradientUnits="userSpaceOnUse">
<stop stop-color="#3BDA38"/>
<stop offset="1" stop-color="#1B701A"/>
</linearGradient>
<linearGradient id="paint14_linear_74_1470" x1="78.0742" y1="1939.72" x2="-67.7917" y2="2133.83" gradientUnits="userSpaceOnUse">
<stop stop-color="#35CC32"/>
<stop offset="1" stop-color="#175716"/>
</linearGradient>
<linearGradient id="paint15_linear_74_1470" x1="266.39" y1="2018.48" x2="45.1922" y2="2312.83" gradientUnits="userSpaceOnUse">
<stop stop-color="#30B82E"/>
<stop offset="1" stop-color="#378536"/>
</linearGradient>
<linearGradient id="paint16_linear_74_1470" x1="511.103" y1="2003.92" x2="263.049" y2="2334.01" gradientUnits="userSpaceOnUse">
<stop stop-color="#3BDA38"/>
<stop offset="1" stop-color="#2C702B"/>
</linearGradient>
<linearGradient id="paint17_linear_74_1470" x1="667.199" y1="3100.31" x2="908.469" y2="3306.95" gradientUnits="userSpaceOnUse">
<stop stop-color="#35CC32"/>
<stop offset="1" stop-color="#175716"/>
</linearGradient>
<linearGradient id="paint18_linear_74_1470" x1="785.731" y1="2861" x2="1151.6" y2="3174.36" gradientUnits="userSpaceOnUse">
<stop stop-color="#30B82E"/>
<stop offset="1" stop-color="#378536"/>
</linearGradient>
<linearGradient id="paint19_linear_74_1470" x1="1071.59" y1="2756.32" x2="1262.26" y2="2919.62" gradientUnits="userSpaceOnUse">
<stop stop-color="#36B733"/>
<stop offset="1" stop-color="#1C431B"/>
</linearGradient>
<linearGradient id="paint20_linear_74_1470" x1="284.971" y1="599.402" x2="232.398" y2="772.113" gradientUnits="userSpaceOnUse">
<stop stop-color="#35CC32"/>
<stop offset="1" stop-color="#175716"/>
</linearGradient>
<linearGradient id="paint21_linear_74_1470" x1="155.092" y1="520.872" x2="75.3684" y2="782.779" gradientUnits="userSpaceOnUse">
<stop stop-color="#30B82E"/>
<stop offset="1" stop-color="#378536"/>
</linearGradient>
<linearGradient id="paint22_linear_74_1470" x1="-13.898" y1="557.962" x2="-55.4431" y2="694.447" gradientUnits="userSpaceOnUse">
<stop stop-color="#36B733"/>
<stop offset="1" stop-color="#1C431B"/>
</linearGradient>
<clipPath id="clip0_74_1470">
<rect width="1280" height="5247.73" fill="white"/>
</clipPath>
</defs>
</svg>
