<svg width="429" height="3367" viewBox="0 0 429 3367" fill="none" xmlns="http://www.w3.org/2000/svg">
<g id="bg-mobile" clip-path="url(#clip0_74_1633)">
<rect width="429" height="3367" fill="white"/>
<path id="Vector 1162" d="M456.33 198.297C415.192 227.807 346.891 305.002 402.787 377.708C432.486 406.673 448.736 414.605 453.149 414.951C442.06 357.032 427.171 232.615 456.33 198.297Z" fill="url(#paint0_linear_74_1633)"/>
<path id="Vector 1163" d="M174.484 337.727C229.176 355.938 341.564 399.518 353.581 428.152C368.603 463.944 364.252 382.473 335.544 362.82C306.837 343.166 228.742 326.381 215.955 329.705C205.725 332.364 184.046 336.161 174.484 337.727Z" fill="url(#paint1_linear_74_1633)"/>
<path id="Vector 1164" d="M381.38 313.384C380.12 314.378 361.984 421.761 392.746 453.787C423.508 485.813 411.073 457.886 431.815 486.18C448.029 508.296 453.181 516.26 453.81 517.617C446.122 499.925 430.314 456.096 428.282 421.594C408.281 378.093 395.209 380.856 395.499 361.288C395.731 345.634 386.183 322.829 381.38 313.384Z" fill="url(#paint2_linear_74_1633)"/>
<path id="Vector 1165" d="M495.701 595.278C490.569 586.171 487.412 576.823 484.099 566.961C479.66 553.747 471.808 541.913 463.919 530.527C452.916 514.647 440.305 499.854 425.937 486.9C415.739 477.707 404.887 469.152 394.398 460.284C383.037 450.678 371.08 440.93 358.758 432.575C355.605 430.437 358.068 430.909 357.916 427.51C357.442 416.905 356.518 406.386 355.132 395.846C353.233 381.399 347.098 370.929 337.216 360.302C324.671 346.81 309.223 339.945 291.055 337.393C275.05 335.145 258.852 332.444 242.751 331.034C230.223 329.937 216.997 328.316 204.453 329.633C195.432 330.58 186.224 333.065 177.587 335.838C177.309 335.928 172.56 337.134 174.633 338.164C177.464 339.57 181.053 339.957 184.063 340.903C208.475 348.577 233.58 352.843 257.057 363.431C278.577 373.136 300.373 382.834 319.733 396.503C331.415 404.751 343.443 413.033 353.094 423.683C360.467 431.819 369.272 438.278 377.484 445.537C383.642 450.981 390.107 456.035 395.835 461.947C402.005 468.316 408.163 474.807 414.763 480.732C428.354 492.931 441.274 505.709 454.347 518.443C466.034 529.827 474.323 542.353 481.818 556.819C488.763 570.222 495.484 583.759 503.522 596.559C511.377 609.066 520.608 620.707 529.507 632.474" stroke="black" stroke-width="2.51796" stroke-linecap="round"/>
<path id="Vector 1166" d="M382.379 315.348C381.713 321.467 380.572 327.12 380.448 333.357C380.044 353.783 376.873 374.097 377.753 394.558C378.683 416.195 383.6 436.699 395.358 455.009C399.901 462.083 405.87 471.249 415.384 468.797C417.132 468.347 421.214 470.664 422.513 471.528C425.131 473.27 425.462 474.644 427.294 477.14C435.2 487.916 442.627 499.082 450.767 509.695C461.921 524.236 469.558 541.259 478.902 556.984C482.807 563.555 486.306 570.278 489.972 576.975C491.647 580.036 493.525 582.987 495.242 586.026C495.917 587.219 497.502 589.819 497.905 591.263C498.785 594.411 496.471 594.71 495.15 596.979" stroke="black" stroke-width="2.51796" stroke-linecap="round"/>
<path id="Vector 1167" d="M382.722 317.292C383.52 319.705 385.23 321.29 386.835 323.205C389.24 326.074 391.005 329.298 392.534 332.704C396.801 342.21 396.248 352.514 398.946 362.4C401.695 372.47 406.524 383.13 412.745 391.556C421.076 402.841 430.148 410.56 431.719 425.3C434.085 447.499 434.668 469.642 443.514 490.51C450.546 507.101 459.306 522.186 468.22 537.778C477.483 553.978 485.121 570.816 495.447 586.432C504.753 600.504 514.864 614.184 526.913 626.025" stroke="black" stroke-width="2.51796" stroke-linecap="round"/>
<path id="Vector 1168" d="M383.035 329.138C384.589 339.987 385.663 350.847 388.397 361.486C391.985 375.448 395.77 389.449 399.964 403.234C404.267 417.376 410.591 429.718 417.29 442.759C423.406 454.665 428.17 466.905 433.724 479.05C439.967 492.7 447.6 505.666 454.565 518.946C461.099 531.405 467.626 543.362 475.158 555.24C482.551 566.899 489.545 578.937 496.238 591.012C499.906 597.631 504.416 603.599 506.98 610.738" stroke="black" stroke-width="2.51796" stroke-linecap="round"/>
<path id="Vector 1169" d="M379.983 317.858C380.44 319.128 379.576 317.026 379.626 315.763C379.826 310.706 379.339 305.618 379.858 300.573C381.637 283.285 389.143 266.847 397.924 252.137C405.903 238.768 415.616 227.004 427.482 216.853C435.505 209.99 444.283 204.479 452.801 198.327C453.04 198.155 449.989 202.461 449.502 203.459C444.902 212.884 443.692 223.1 441.896 233.271C439.683 245.805 434.976 257.779 435.194 270.67C435.508 289.276 436.408 308.027 438.538 326.51C441.189 349.514 441.11 372.865 445.923 395.565C450.403 416.693 454.637 437.852 458.644 459.08C462.345 478.683 468.01 497.789 472.56 517.199C477.579 538.608 486.293 560.239 497.121 579.365C503.292 590.267 509.812 601.711 517.581 611.548C518.789 613.077 525.045 618.025 520.828 617.159" stroke="black" stroke-width="2.51796" stroke-linecap="round"/>
<path id="Vector 1170" d="M417.844 397.594C420.698 402.029 425.002 405.205 429.771 407.51C434.367 409.732 439.338 411.366 444.195 412.927C445.411 413.318 450.19 413.619 448.753 415.068" stroke="black" stroke-width="2.51796" stroke-linecap="round"/>
<path id="Vector 1171" d="M441.015 216.089C437.334 217.233 436.093 220.703 434.327 223.89C431.763 228.516 429.037 233.018 426.206 237.487C419.972 247.327 417.185 260.488 416.209 271.917C415.484 280.398 418.241 287.889 419.143 296.158C420.791 311.274 422.586 326.126 425.041 341.128C426.633 350.857 428.074 360.616 429.603 370.355C430.949 378.93 432.561 384.824 437.929 391.619" stroke="black" stroke-width="2.51796" stroke-linecap="round"/>
<path id="Vector 1162_2" d="M183.628 610.112C182.225 609.439 80.9681 639.505 66.2158 679.97C51.4635 720.435 70.4729 697.679 54.6924 727.825C42.357 751.39 37.622 759.278 36.7085 760.404C48.8327 746.154 80.2486 713.671 109.426 697.167C138.766 661.172 130.778 650.969 147.942 642.865C161.673 636.382 177.454 618.328 183.628 610.112Z" fill="url(#paint3_linear_74_1633)"/>
<path id="Vector 1194" d="M206.441 2591.17C205.037 2590.49 103.781 2620.56 89.0283 2661.02C74.276 2701.49 93.2854 2678.73 77.5049 2708.88C65.1695 2732.44 60.4345 2740.33 59.521 2741.46C71.6452 2727.21 103.061 2694.72 132.239 2678.22C161.579 2642.23 153.59 2632.02 170.754 2623.92C184.485 2617.44 200.267 2599.38 206.441 2591.17Z" fill="url(#paint4_linear_74_1633)"/>
<path id="Vector 1163_2" d="M182.345 611.821C176.731 613.854 171.321 615.274 165.838 617.83C147.878 626.201 128.833 632.116 111.392 641.619C92.9462 651.669 77.191 664.708 66.2677 682.766C62.0471 689.744 56.6147 698.856 62.8126 706.094C63.951 707.423 63.6771 711.968 63.4792 713.468C63.0805 716.491 62.0254 717.366 60.6335 720.028C54.6257 731.514 48.0747 742.751 42.3089 754.372C34.4088 770.294 22.8468 784.215 13.1433 799.068C9.08898 805.273 4.7287 811.192 0.462102 817.244C-1.48819 820.01 -3.25584 822.906 -5.16864 825.699C-5.91979 826.796 -7.50693 829.286 -8.59199 830.254C-10.9575 832.365 -12.2063 830.478 -14.7468 830.296" stroke="black" stroke-width="2.44217" stroke-linecap="round"/>
<path id="Vector 1195" d="M205.158 2592.87C199.544 2594.91 194.134 2596.33 188.651 2598.88C170.69 2607.26 151.646 2613.17 134.204 2622.67C115.759 2632.72 100.004 2645.76 89.0802 2663.82C84.8596 2670.8 79.4272 2679.91 85.6251 2687.15C86.7635 2688.48 86.4896 2693.02 86.2917 2694.52C85.893 2697.55 84.8379 2698.42 83.446 2701.08C77.4382 2712.57 70.8872 2723.8 65.1214 2735.43C57.2213 2751.35 45.6593 2765.27 35.9558 2780.12C31.9015 2786.33 27.5412 2792.25 23.2746 2798.3C21.3243 2801.06 19.5567 2803.96 17.6439 2806.75C16.8927 2807.85 15.3056 2810.34 14.2205 2811.31C11.855 2813.42 10.6062 2811.53 8.06567 2811.35" stroke="black" stroke-width="2.44217" stroke-linecap="round"/>
<path id="Vector 1164_2" d="M180.798 612.95C179.037 614.675 178.388 616.84 177.406 619.056C175.934 622.376 173.88 625.289 171.567 628.076C165.112 635.851 155.902 639.77 148.446 646.341C140.85 653.035 133.629 661.793 128.949 670.809C122.68 682.884 119.832 694.08 107.667 701.742C89.3455 713.283 70.3123 723.247 55.9174 739.862C44.4732 753.071 35.0768 767.141 25.3063 781.563C15.1547 796.547 3.7533 810.389 -5.43491 826.051C-13.7149 840.164 -21.3104 854.811 -26.4763 870.361" stroke="black" stroke-width="2.44217" stroke-linecap="round"/>
<path id="Vector 1196" d="M203.611 2594C201.85 2595.73 201.2 2597.89 200.218 2600.11C198.746 2603.43 196.693 2606.34 194.379 2609.13C187.924 2616.9 178.714 2620.82 171.258 2627.39C163.663 2634.09 156.442 2642.85 151.761 2651.86C145.492 2663.94 142.644 2675.13 130.479 2682.8C112.158 2694.34 93.1248 2704.3 78.7299 2720.92C67.2857 2734.13 57.8893 2748.2 48.1188 2762.62C37.9672 2777.6 26.5658 2791.44 17.3776 2807.1C9.09763 2821.22 1.50207 2835.86 -3.66378 2851.41" stroke="black" stroke-width="2.44217" stroke-linecap="round"/>
<path id="Vector 1165_2" d="M170.616 618.282C161.832 624.268 152.834 629.841 144.736 636.765C134.111 645.852 123.534 655.127 113.321 664.666C102.844 674.452 94.7966 685.231 86.3013 696.634C78.5453 707.044 69.9202 716.42 61.7166 726.443C52.4956 737.709 44.464 749.893 35.8744 761.629C27.8152 772.64 20.1897 783.431 13.0627 795.062C6.06709 806.479 -1.42898 817.71 -9.08641 828.696C-13.2833 834.717 -16.5547 841.192 -21.6759 846.474" stroke="black" stroke-width="2.44217" stroke-linecap="round"/>
<path id="Vector 1197" d="M193.429 2599.34C184.645 2605.32 175.646 2610.89 167.549 2617.82C156.923 2626.91 146.347 2636.18 136.134 2645.72C125.656 2655.51 117.609 2666.28 109.114 2677.69C101.358 2688.1 92.7327 2697.47 84.5291 2707.5C75.3081 2718.76 67.2765 2730.95 58.6869 2742.68C50.6277 2753.69 43.0022 2764.48 35.8752 2776.12C28.8796 2787.53 21.3835 2798.76 13.7261 2809.75C9.52918 2815.77 6.25782 2822.25 1.1366 2827.53" stroke="black" stroke-width="2.44217" stroke-linecap="round"/>
<path id="Vector 1166_2" d="M12.2307 741.431C23.91 726.142 38.4847 694.822 29.4271 675.049C20.4923 655.543 3.68499 646.893 4.45892 645.484C5.23286 644.076 -5.38838 629.841 -7.51995 625.113C-9.65151 620.384 -16.1655 636.239 -11.9518 649.923C-7.73809 663.606 -0.105155 665.931 -1.1177 679.383C-2.13025 692.834 14.0129 731.116 12.2307 741.431Z" fill="url(#paint5_linear_74_1633)" stroke="black" stroke-width="0.227237"/>
<path id="Vector 1198" d="M35.0432 2722.49C46.7225 2707.2 61.2972 2675.88 52.2396 2656.1C43.3048 2636.6 26.4975 2627.95 27.2714 2626.54C28.0454 2625.13 17.4241 2610.9 15.2926 2606.17C13.161 2601.44 6.64704 2617.29 10.8607 2630.98C15.0744 2644.66 22.7073 2646.99 21.6948 2660.44C20.6823 2673.89 36.8254 2712.17 35.0432 2722.49Z" fill="url(#paint6_linear_74_1633)" stroke="black" stroke-width="0.227237"/>
<path id="Vector 1167_2" d="M70.7097 662.548C57.4991 695.258 41.527 706.905 26.2116 716.089C10.8963 725.273 10.2915 746.478 11.9035 755.933C15.0018 763.662 21.3619 779.356 22.0154 780.302C22.8324 781.484 43.5083 784.231 51.5164 774.331C59.5245 764.431 73.5091 730.313 74.1615 713.18C74.814 696.047 79.2778 685.189 70.7097 662.548Z" fill="url(#paint7_linear_74_1633)" stroke="black" stroke-width="0.227237"/>
<path id="Vector 1199" d="M93.5222 2643.6C80.3116 2676.31 64.3395 2687.96 49.0241 2697.14C33.7088 2706.33 33.104 2727.53 34.716 2736.99C37.8143 2744.72 44.1744 2760.41 44.8279 2761.36C45.6449 2762.54 66.3208 2765.28 74.3289 2755.38C82.337 2745.48 96.3216 2711.37 96.974 2694.23C97.6265 2677.1 102.09 2666.24 93.5222 2643.6Z" fill="url(#paint8_linear_74_1633)" stroke="black" stroke-width="0.227237"/>
<path id="Vector 1168_2" d="M209.108 700.037C176.902 682.752 105.15 663.017 75.7893 722.362C66.4546 750.821 66.4786 763.877 67.6574 766.847C101.676 741.247 177.593 692.045 209.108 700.037Z" fill="url(#paint9_linear_74_1633)"/>
<path id="Vector 1200" d="M231.92 2681.09C199.714 2663.81 127.962 2644.07 98.6018 2703.42C89.2671 2731.88 89.2911 2744.93 90.4699 2747.9C124.489 2722.3 200.405 2673.1 231.92 2681.09Z" fill="url(#paint10_linear_74_1633)"/>
<path id="Vector 1169_2" d="M32.2592 711.823C34.6385 705.066 36.4579 691.856 35.7572 684.693C34.5134 671.977 25.3252 662.228 15.9961 654.336C6.50268 646.304 -0.00607937 636.966 -5.05438 625.694C-6.84918 621.686 -9.40708 630.641 -9.74648 632.022C-11.7478 640.164 -11.8431 648.888 -8.13348 656.479C-6.16621 660.505 -3.26731 664.04 -1.6153 668.231C0.626372 673.918 1.28415 680.942 2.51288 686.904C3.94791 693.866 4.83731 700.968 6.67426 707.844C8.27153 713.822 10.9672 719.539 12.2576 725.589C15.856 742.459 15.5808 758.34 9.44418 774.513C4.82886 786.675 1.19873 798.936 -4.90574 810.503C-9.45588 819.126 -12.7206 828.151 -17.7869 836.512C-19.7391 839.734 -21.8503 842.784 -23.9564 845.899C-25.1603 847.68 -24.6772 846.609 -25.6415 844.317" stroke="black" stroke-width="1.59066" stroke-linecap="round"/>
<path id="Vector 1201" d="M55.0717 2692.88C57.451 2686.12 59.2704 2672.91 58.5697 2665.75C57.3259 2653.03 48.1377 2643.28 38.8086 2635.39C29.3152 2627.36 22.8064 2618.02 17.7581 2606.75C15.9633 2602.74 13.4054 2611.7 13.066 2613.08C11.0647 2621.22 10.9694 2629.94 14.679 2637.53C16.6463 2641.56 19.5452 2645.09 21.1972 2649.28C23.4389 2654.97 24.0966 2662 25.3254 2667.96C26.7604 2674.92 27.6498 2682.02 29.4868 2688.9C31.084 2694.88 33.7797 2700.59 35.0701 2706.64C38.6685 2723.51 38.3933 2739.39 32.2567 2755.57C27.6414 2767.73 24.0112 2779.99 17.9068 2791.56C13.3566 2800.18 10.0919 2809.21 5.02563 2817.57C3.0734 2820.79 0.962167 2823.84 -1.14387 2826.95C-2.34784 2828.73 -1.86465 2827.66 -2.82899 2825.37" stroke="black" stroke-width="1.59066" stroke-linecap="round"/>
<path id="Vector 1170_2" d="M25.6881 778.285C20.449 772.786 17.537 764.23 15.7097 757.016C13.3023 747.512 12.7726 738.656 16.776 729.456C20.4959 720.908 27.7259 715.915 35.0282 710.673C46.2924 702.587 57.3161 694.627 64.4189 682.448C67.7944 676.66 69.9519 669.74 72.2135 663.418C72.4045 662.884 73.6185 659.595 73.8516 661.238C74.6928 667.166 77.762 672.511 78.5668 678.583C79.877 688.468 79.4813 697.604 78.0851 707.467C76.6875 717.34 74.2896 727.59 71.6085 737.183C69.9413 743.149 68.444 749.201 66.9155 755.196C65.2408 761.764 60.8487 766.456 55.7965 770.749C52.1888 773.814 49.0135 777.297 44.4673 778.974C40.3954 780.476 37.1834 777.39 33.303 778.322C30.9692 778.883 30.3977 782.065 28.9957 783.55C25.1572 787.616 20.5569 791.165 17.2033 795.628C9.69749 805.616 1.58207 815.178 -6.04306 825.091C-16.5226 838.715 -26.0849 853.272 -37.4758 866.121" stroke="black" stroke-width="1.59066" stroke-linecap="round"/>
<path id="Vector 1202" d="M48.5006 2759.34C43.2615 2753.84 40.3495 2745.28 38.5222 2738.07C36.1148 2728.57 35.5851 2719.71 39.5885 2710.51C43.3084 2701.96 50.5384 2696.97 57.8407 2691.73C69.1049 2683.64 80.1286 2675.68 87.2314 2663.5C90.6069 2657.71 92.7644 2650.79 95.026 2644.47C95.217 2643.94 96.431 2640.65 96.6641 2642.29C97.5053 2648.22 100.575 2653.57 101.379 2659.64C102.69 2669.52 102.294 2678.66 100.898 2688.52C99.5 2698.39 97.1021 2708.64 94.421 2718.24C92.7538 2724.2 91.2565 2730.26 89.728 2736.25C88.0533 2742.82 83.6612 2747.51 78.609 2751.8C75.0013 2754.87 71.826 2758.35 67.2798 2760.03C63.2079 2761.53 59.9959 2758.44 56.1155 2759.38C53.7817 2759.94 53.2102 2763.12 51.8082 2764.6C47.9697 2768.67 43.3694 2772.22 40.0158 2776.68C32.51 2786.67 24.3946 2796.23 16.7694 2806.14C6.28993 2819.77 -3.27241 2834.33 -14.6633 2847.17" stroke="black" stroke-width="1.59066" stroke-linecap="round"/>
<path id="Vector 1171_2" d="M73.4136 673.164C71.3858 674.636 70.1784 679.787 69.1231 682.068C66.8877 686.899 64.2358 691.622 62.156 696.509C58.0705 706.108 56.5008 716.454 53.5432 726.42C51.1648 734.435 47.6353 742.369 44.1336 749.953C41.5767 755.491 38.2373 760.275 35.1405 765.493C29.8959 774.329 24.3944 782.637 18.0386 790.73" stroke="black" stroke-width="1.59066" stroke-linecap="round"/>
<path id="Vector 1203" d="M96.2261 2654.22C94.1983 2655.69 92.9909 2660.84 91.9356 2663.12C89.7002 2667.95 87.0483 2672.68 84.9685 2677.56C80.883 2687.16 79.3133 2697.51 76.3557 2707.47C73.9773 2715.49 70.4478 2723.42 66.9461 2731.01C64.3892 2736.54 61.0498 2741.33 57.953 2746.55C52.7084 2755.38 47.2069 2763.69 40.8511 2771.78" stroke="black" stroke-width="1.59066" stroke-linecap="round"/>
<path id="Vector 1172" d="M107.335 688.554C106.658 689.253 107.746 688.026 108.58 687.657C111.922 686.179 115.065 684.246 118.5 682.978C130.272 678.635 143.314 678.276 155.64 679.291C166.843 680.214 177.556 682.77 187.908 687.235C194.907 690.254 201.27 694.192 207.965 697.758C208.154 697.858 204.392 697.25 203.591 697.251C196.019 697.265 189.012 699.728 181.848 701.798C173.019 704.348 163.761 705.102 155.474 709.342C143.513 715.46 131.645 722.004 120.341 729.261C106.272 738.292 91.1102 745.663 77.9258 756C65.6544 765.62 53.2844 775.091 40.7981 784.437C29.2673 793.067 18.6838 802.813 7.54805 811.933C-4.73399 821.992 -15.9856 834.516 -24.9418 847.615C-30.0468 855.081 -35.3924 862.946 -39.2992 871.109C-39.9065 872.377 -41.125 878.006 -41.9039 874.997" stroke="black" stroke-width="1.81789" stroke-linecap="round"/>
<path id="Vector 1204" d="M130.147 2669.61C129.47 2670.31 130.558 2669.08 131.392 2668.71C134.734 2667.23 137.877 2665.3 141.313 2664.03C153.085 2659.69 166.126 2659.33 178.453 2660.35C189.656 2661.27 200.368 2663.82 210.721 2668.29C217.72 2671.31 224.082 2675.25 230.778 2678.81C230.966 2678.91 227.205 2678.3 226.403 2678.3C218.831 2678.32 211.824 2680.78 204.66 2682.85C195.832 2685.4 186.574 2686.16 178.287 2690.4C166.326 2696.51 154.458 2703.06 143.153 2710.31C129.084 2719.35 113.923 2726.72 100.738 2737.05C88.4669 2746.67 76.0969 2756.14 63.6106 2765.49C52.0798 2774.12 41.4963 2783.87 30.3605 2792.99C18.0785 2803.05 6.82695 2815.57 -2.12929 2828.67C-7.23431 2836.14 -12.5799 2844 -16.4867 2852.16C-17.094 2853.43 -18.3125 2859.06 -19.0914 2856.05" stroke="black" stroke-width="1.81789" stroke-linecap="round"/>
<path id="Vector 1173" d="M192.705 695.764C190.793 693.741 188.149 694.04 185.522 693.908C181.708 693.717 177.923 693.381 174.126 692.967C165.766 692.053 156.349 694.431 148.63 697.431C142.902 699.658 138.923 703.826 133.849 707.039C124.575 712.912 115.518 718.798 106.574 725.158C100.773 729.282 94.9055 733.319 89.0782 737.406C83.9477 741.005 80.6394 743.923 77.9416 749.563" stroke="black" stroke-width="1.81789" stroke-linecap="round"/>
<path id="Vector 1205" d="M215.517 2676.82C213.605 2674.8 210.961 2675.09 208.334 2674.96C204.52 2674.77 200.736 2674.44 196.939 2674.02C188.579 2673.11 179.162 2675.48 171.442 2678.49C165.715 2680.71 161.735 2684.88 156.662 2688.09C147.387 2693.97 138.331 2699.85 129.386 2706.21C123.586 2710.34 117.718 2714.37 111.891 2718.46C106.76 2722.06 103.452 2724.98 100.754 2730.62" stroke="black" stroke-width="1.81789" stroke-linecap="round"/>
<path id="Vector 1162_3" d="M341.689 1064.9C322.7 1048.37 283.023 1026.73 256.45 1036.91C230.238 1046.95 217.541 1068.17 215.767 1067.04C213.993 1065.92 194.521 1078.6 188.17 1080.99C181.818 1083.38 201.976 1093.2 220.193 1088.84C238.411 1084.48 242.083 1074.71 259.562 1077.15C277.04 1079.6 328.369 1061.71 341.689 1064.9Z" fill="url(#paint11_linear_74_1633)" stroke="black" stroke-width="0.297297"/>
<path id="Vector 1206" d="M364.501 3045.95C345.512 3029.43 305.836 3007.79 279.263 3017.96C253.05 3028 240.354 3049.23 238.58 3048.1C236.806 3046.97 217.334 3059.65 210.982 3062.04C204.631 3064.43 224.788 3074.26 243.006 3069.9C261.223 3065.54 264.896 3055.76 282.374 3058.21C299.853 3060.65 351.182 3042.77 364.501 3045.95Z" fill="url(#paint12_linear_74_1633)" stroke="black" stroke-width="0.297297"/>
<path id="Vector 1163_3" d="M243.572 981.968C285.178 1001.94 299.053 1023.77 309.767 1044.53C320.481 1065.29 348.117 1067.85 360.596 1066.54C370.946 1063.14 391.968 1056.14 393.257 1055.37C394.869 1054.4 400.179 1027.63 387.921 1016.35C375.663 1005.07 332.283 983.965 309.968 981.684C287.652 979.403 273.848 972.67 243.572 981.968Z" fill="url(#paint13_linear_74_1633)" stroke="black" stroke-width="0.297297"/>
<path id="Vector 1207" d="M266.385 2963.02C307.991 2983 321.865 3004.82 332.579 3025.59C343.293 3046.35 370.93 3048.91 383.408 3047.59C393.758 3044.19 414.78 3037.19 416.07 3036.42C417.682 3035.45 422.992 3008.69 410.734 2997.4C398.476 2986.12 355.096 2965.02 332.78 2962.74C310.465 2960.46 296.66 2953.72 266.385 2963.02Z" fill="url(#paint14_linear_74_1633)" stroke="black" stroke-width="0.297297"/>
<path id="Vector 1164_3" d="M392.125 885.299C386.841 895.126 374.183 916.121 365.827 921.49C355.381 928.202 349.299 958.612 360.852 979.858C370.094 996.855 384.189 1011.72 390.081 1017.03C380.682 1005.45 363.591 976.568 370.418 953.606C378.952 924.903 400.48 892.455 392.125 885.299Z" fill="url(#paint15_linear_74_1633)" stroke="black" stroke-width="0.297297"/>
<path id="Vector 1208" d="M414.938 2866.35C409.653 2876.18 396.995 2897.18 388.639 2902.54C378.194 2909.26 372.111 2939.67 383.664 2960.91C392.906 2977.91 407.002 2992.77 412.894 2998.08C403.495 2986.51 386.404 2957.62 393.231 2934.66C401.765 2905.96 423.293 2873.51 414.938 2866.35Z" fill="url(#paint16_linear_74_1633)" stroke="black" stroke-width="0.297297"/>
<path id="Vector 1165_3" d="M304.699 1036.28C296.075 1032.61 278.98 1029.13 269.569 1029.45C252.862 1030.01 239.368 1041.2 228.285 1052.72C217.006 1064.44 204.272 1072.16 189.133 1077.82C183.751 1079.82 195.229 1083.91 197.004 1084.47C207.468 1087.76 218.851 1088.61 229.071 1084.4C234.491 1082.17 239.349 1078.68 244.959 1076.87C252.57 1074.42 261.796 1074.15 269.683 1073.04C278.894 1071.75 288.24 1071.18 297.37 1069.35C305.31 1067.77 312.998 1064.72 321.005 1063.54C343.332 1060.25 364.044 1061.93 384.648 1071.3C400.144 1078.34 415.848 1084.1 430.443 1093.03C441.321 1099.69 452.833 1104.71 463.327 1112.02C467.371 1114.84 471.177 1117.85 475.068 1120.86C477.293 1122.58 475.935 1121.86 472.862 1122.93" stroke="black" stroke-width="2.08108" stroke-linecap="round"/>
<path id="Vector 1209" d="M327.512 3017.33C318.888 3013.66 301.793 3010.19 292.381 3010.5C275.675 3011.07 262.18 3022.25 251.097 3033.77C239.819 3045.5 227.085 3053.22 211.946 3058.87C206.563 3060.88 218.042 3064.96 219.816 3065.52C230.28 3068.82 241.663 3069.67 251.884 3065.46C257.304 3063.22 262.162 3059.73 267.771 3057.93C275.383 3055.47 284.609 3055.2 292.495 3054.09C301.706 3052.8 311.052 3052.23 320.183 3050.41C328.122 3048.82 335.81 3045.78 343.817 3044.6C366.144 3041.3 386.857 3042.99 407.46 3052.35C422.956 3059.39 438.661 3065.15 453.255 3074.09C464.134 3080.75 475.646 3085.76 486.14 3093.07C490.184 3095.89 493.989 3098.9 497.881 3101.91C500.106 3103.63 498.748 3102.91 495.675 3103.98" stroke="black" stroke-width="2.08108" stroke-linecap="round"/>
<path id="Vector 1166_3" d="M390.927 1050.41C383.311 1056.79 371.896 1059.88 362.326 1061.66C349.716 1064.01 338.108 1063.96 326.43 1057.97C315.58 1052.4 309.664 1042.54 303.429 1032.57C293.81 1017.19 284.337 1002.13 269.027 991.844C261.751 986.954 252.897 983.56 244.83 980.08C244.149 979.786 239.956 977.926 242.121 977.759C249.931 977.155 257.166 973.594 265.161 973.049C278.176 972.163 290.071 973.441 302.833 976.087C315.608 978.735 328.791 982.721 341.092 987.021C348.742 989.696 356.52 992.155 364.22 994.651C372.656 997.385 378.416 1003.51 383.599 1010.47C387.3 1015.43 391.583 1019.87 393.394 1025.94C395.015 1031.39 390.717 1035.32 391.611 1040.47C392.149 1043.56 396.255 1044.57 398.077 1046.53C403.066 1051.88 407.316 1058.18 412.863 1062.93C425.279 1073.56 437.087 1084.96 449.394 1095.74C466.308 1110.56 484.517 1124.26 500.343 1140.2" stroke="black" stroke-width="2.08108" stroke-linecap="round"/>
<path id="Vector 1210" d="M413.74 3031.46C406.123 3037.84 394.709 3040.93 385.138 3042.71C372.528 3045.06 360.92 3045.02 349.243 3039.02C338.392 3033.45 332.477 3023.6 326.241 3013.63C316.623 2998.24 307.15 2983.19 291.84 2972.9C284.564 2968.01 275.709 2964.61 267.643 2961.13C266.962 2960.84 262.769 2958.98 264.933 2958.81C272.744 2958.21 279.979 2954.65 287.973 2954.1C300.989 2953.22 312.884 2954.5 325.646 2957.14C338.42 2959.79 351.603 2963.77 363.905 2968.08C371.555 2970.75 379.333 2973.21 387.032 2975.7C395.468 2978.44 401.228 2984.57 406.411 2991.52C410.113 2996.49 414.396 3000.92 416.206 3007C417.828 3012.44 413.53 3016.38 414.424 3021.52C414.962 3024.61 419.068 3025.63 420.89 3027.58C425.878 3032.93 430.129 3039.23 435.676 3043.98C448.091 3054.62 459.899 3066.01 472.206 3076.79C489.12 3091.61 507.33 3105.31 523.155 3121.25" stroke="black" stroke-width="2.08108" stroke-linecap="round"/>
<path id="Vector 1167_3" d="M257.658 979.322C259.411 982.093 266.035 984.099 268.925 985.667C275.047 988.988 280.992 992.845 287.199 995.968C299.392 1002.1 312.769 1005.01 325.534 1009.71C335.8 1013.48 345.865 1018.75 355.475 1023.96C362.493 1027.76 368.46 1032.51 375.015 1036.99C386.115 1044.58 396.503 1052.45 406.54 1061.43" stroke="black" stroke-width="2.08108" stroke-linecap="round"/>
<path id="Vector 1211" d="M280.47 2960.38C282.223 2963.15 288.848 2965.15 291.738 2966.72C297.859 2970.04 303.804 2973.9 310.011 2977.02C322.204 2983.16 335.581 2986.07 348.347 2990.76C358.612 2994.53 368.678 2999.8 378.288 3005.01C385.305 3008.81 391.273 3013.57 397.827 3018.05C408.927 3025.63 419.315 3033.51 429.352 3042.48" stroke="black" stroke-width="2.08108" stroke-linecap="round"/>
<path id="Vector 1168_3" d="M392.315 879.591C392.129 894.552 383.991 907.321 379.031 921.101C372.722 938.633 366.45 957.534 370.884 976.318C374.625 992.167 385.486 1006.77 394.986 1019.58C408.253 1037.46 421.179 1055.54 434.699 1073.25" stroke="black" stroke-width="2.08108" stroke-linecap="round"/>
<path id="Vector 1212" d="M415.127 2860.65C414.942 2875.61 406.803 2888.38 401.844 2902.16C395.534 2919.69 389.262 2938.59 393.697 2957.37C397.438 2973.22 408.299 2987.83 417.798 3000.63C431.066 3018.51 443.992 3036.6 457.511 3054.3" stroke="black" stroke-width="2.08108" stroke-linecap="round"/>
<path id="Vector 1169_3" d="M391.721 879.108C388.499 883.817 387.228 889.138 384.586 894.108C381.823 899.304 376.638 903.376 372.629 907.588C366.711 913.808 359.665 920.894 356.933 929.191C352.69 942.078 352.217 953.75 355.951 966.646C358.939 976.965 366.283 983.975 372.102 992.661C377.881 1001.29 384.788 1008.49 391.372 1016.44C400.325 1027.26 407.337 1039.3 415.215 1050.88C422.442 1061.51 430.8 1070.6 440.647 1078.89C449.065 1085.97 481.055 1115.04 490.022 1121.17" stroke="black" stroke-width="2.08108" stroke-linecap="round"/>
<path id="Vector 1213" d="M414.534 2860.16C411.311 2864.87 410.041 2870.19 407.398 2875.16C404.636 2880.36 399.451 2884.43 395.442 2888.64C389.523 2894.86 382.477 2901.95 379.745 2910.24C375.502 2923.13 375.03 2934.8 378.763 2947.7C381.751 2958.02 389.095 2965.03 394.915 2973.72C400.694 2982.34 407.601 2989.54 414.184 2997.49C423.138 3008.31 430.149 3020.36 438.027 3031.94C445.254 3042.56 453.613 3051.65 463.459 3059.94C471.877 3067.02 503.868 3096.09 512.834 3102.23" stroke="black" stroke-width="2.08108" stroke-linecap="round"/>
<path id="Vector 1174" d="M46.7908 249.312C50.8488 235.594 63.2614 213.107 79.1064 209.873C94.7365 206.683 107.302 212.981 107.808 211.898C108.314 210.816 121.519 210.95 125.293 210.156C129.067 209.362 122.404 220.227 112.34 223.698C102.276 227.17 97.5328 223.606 89.9003 230.114C82.2678 236.621 52.2024 243.718 46.7908 249.312Z" fill="url(#paint17_linear_74_1633)" stroke="black" stroke-width="0.16896"/>
<path id="Vector 1175" d="M68.5048 179.604C54.6591 201.882 54.6711 216.58 55.8737 229.803C57.0763 243.027 44.6094 252.69 38.2257 255.869C32.2261 257.398 20.0134 260.463 19.1589 260.485C18.0906 260.513 7.37368 249.303 9.80571 240.153C12.2377 231.003 26.5896 207.643 36.5905 199.737C46.5914 191.831 51.1531 184.389 68.5048 179.604Z" fill="url(#paint18_linear_74_1633)" stroke="black" stroke-width="0.16896"/>
<path id="Vector 1176" d="M-32.2181 178.616C-26.685 181.713 -14.2076 187.913 -8.56285 187.936C-1.50692 187.964 10.6928 200.685 11.641 214.396C12.3995 225.365 10.1806 236.794 8.97628 241.137C9.94883 232.72 9.32325 213.655 -0.959474 204.732C-13.8129 193.579 -34.0386 184.596 -32.2181 178.616Z" fill="url(#paint19_linear_74_1633)" stroke="black" stroke-width="0.16896"/>
<path id="Vector 1177" d="M55.7825 224.301C58.796 219.909 65.9292 213.023 70.5376 210.302C78.7183 205.472 88.6011 206.713 97.4316 208.853C106.418 211.031 114.879 210.843 123.861 208.931C127.054 208.251 122.8 213.714 122.119 214.523C118.108 219.296 112.912 223.179 106.727 224.281C103.447 224.865 100.053 224.675 96.8125 225.521C92.4149 226.669 87.9089 229.355 83.7904 231.232C78.9804 233.424 74.3265 236.005 69.3925 237.917C65.1022 239.58 60.4878 240.469 56.2893 242.347C44.5818 247.586 35.1668 254.716 28.1481 265.493C22.8694 273.599 17.1001 281.156 12.8319 289.894C9.6504 296.408 5.66299 302.326 2.8648 309.035C1.78655 311.62 0.881357 314.226 -0.0653672 316.856C-0.606586 318.36 -0.17539 317.6 1.62364 317.174" stroke="black" stroke-width="1.18272" stroke-linecap="round"/>
<path id="Vector 1178" d="M18.7617 257.396C24.361 258.13 30.7757 256.126 35.9081 254.06C42.6704 251.337 48.2205 247.77 51.9883 241.332C55.4894 235.35 55.3162 228.819 55.261 222.135C55.176 211.826 55.1203 201.716 59.3182 192.109C61.3131 187.544 64.5215 183.214 67.3258 179.083C67.5626 178.735 69.0048 176.563 67.9162 177.144C63.9877 179.239 59.4324 179.74 55.4338 181.92C48.9241 185.468 43.6123 189.713 38.3025 194.877C32.9873 200.046 27.8845 205.981 23.3005 211.798C20.4498 215.416 17.4724 218.969 14.5434 222.516C11.3342 226.402 10.4432 231.097 10.0817 236.013C9.82353 239.524 9.1247 242.958 10.1117 246.423C10.9957 249.527 14.2576 250.101 15.3994 252.84C16.0862 254.488 14.4266 256.226 14.1498 257.719C13.3921 261.807 13.2785 266.126 12.0698 270.097C9.36461 278.984 7.18246 288.05 4.57467 296.976C0.990686 309.243 -3.55618 321.369 -6.27477 333.844" stroke="black" stroke-width="1.18272" stroke-linecap="round"/>
<path id="Vector 1179" d="M60.9456 182.636C60.9512 184.499 58.388 187.483 57.4814 189.117C55.5609 192.578 53.8885 196.242 51.8664 199.634C47.8945 206.297 42.371 211.777 37.6843 217.923C33.9154 222.866 30.6993 228.465 27.6814 233.894C25.4778 237.858 24.0699 241.961 22.2953 246.109C19.2897 253.133 16.7145 260.08 14.6426 267.446" stroke="black" stroke-width="1.18272" stroke-linecap="round"/>
<path id="Vector 1180" d="M-34.0507 175.938C-29.3943 183.053 -21.5949 186.69 -15.0106 191.781C-6.63384 198.259 2.14271 205.405 5.75164 215.763C8.79678 224.503 8.04931 234.819 7.4043 243.857C6.50343 256.479 5.82788 269.094 4.75238 281.709" stroke="black" stroke-width="1.18272" stroke-linecap="round"/>
<path id="Vector 1181" d="M-33.9143 175.525C-30.9319 176.799 -28.6983 178.961 -25.9145 180.537C-23.004 182.184 -19.2753 182.554 -16.0677 183.349C-11.3317 184.523 -5.79105 185.769 -1.94857 188.912C4.01986 193.795 7.8095 199.246 9.95669 206.567C11.6749 212.426 10.2945 218.028 10.1566 223.969C10.0196 229.868 8.90705 235.429 8.17899 241.251C7.18881 249.169 7.50504 257.083 7.2642 265.04C7.04326 272.339 5.8125 279.249 3.62217 286.228C1.74976 292.194 -4.71137 315.894 -7.13672 321.572" stroke="black" stroke-width="1.18272" stroke-linecap="round"/>
<path id="Vector 1182" d="M512.906 1637.74C508.184 1636.14 197.871 1770.82 166.593 1905.16C135.314 2039.51 186.964 1959.83 148.433 2061.76C118.314 2141.44 106.305 2168.35 103.836 2172.28C136.88 2122.29 224.218 2006.89 310.609 1943.16C389.992 1817.39 360.655 1788.04 412.094 1755.65C453.246 1729.73 496.449 1666.24 512.906 1637.74Z" fill="url(#paint20_linear_74_1633)"/>
<path id="Vector 1183" d="M509.485 1643.67C492.422 1652.3 475.771 1658.9 459.324 1669.14C405.456 1702.69 347.192 1728.85 295.409 1765.8C240.647 1804.87 195.591 1852.41 167.835 1914.04C157.111 1937.85 143.358 1968.92 165.857 1989.53C169.99 1993.32 170.873 2007.88 170.824 2012.72C170.723 2022.49 167.707 2025.68 164.309 2034.67C149.643 2073.51 133.154 2111.77 119.31 2150.94C100.341 2204.61 68.9567 2253.33 43.8413 2304.3C33.3475 2325.59 21.7703 2346.09 10.5422 2366.98C5.40973 2376.53 0.907665 2386.42 -4.0951 2396.04C-6.05971 2399.81 -10.1441 2408.34 -13.22 2411.84C-19.9256 2419.46 -24.6248 2413.95 -32.7716 2414.35" stroke="black" stroke-width="7.82134" stroke-linecap="round"/>
<path id="Vector 1184" d="M505.006 1647.85C500.072 1654.02 498.844 1661.15 496.577 1668.57C493.179 1679.7 487.775 1689.75 481.496 1699.51C463.975 1726.72 436.208 1742.73 415.04 1766.5C393.476 1790.72 373.901 1821.35 362.5 1851.82C347.231 1892.63 342.5 1929.32 306.783 1958.38C252.99 2002.15 196.326 2041.17 156.976 2099.55C125.691 2145.97 101.25 2194.33 75.7551 2243.95C49.2657 2295.51 18.3619 2343.92 -4.80316 2397.26C-25.6783 2445.32 -44.1717 2494.82 -54.5918 2546.25" stroke="black" stroke-width="7.82134" stroke-linecap="round"/>
<path id="Vector 1185" d="M474.691 1668.73C449.076 1691.16 422.619 1712.35 399.549 1737.49C369.276 1770.48 339.231 1804.05 310.445 1838.32C280.912 1873.48 259.489 1910.86 236.883 1950.39C216.244 1986.48 192.442 2019.62 170.231 2054.65C145.264 2094.03 124.434 2135.87 101.657 2176.49C80.2856 2214.61 60.2081 2251.86 42.0402 2291.59C24.2071 2330.59 4.71146 2369.19 -15.3921 2407.08C-26.4105 2427.84 -34.3109 2449.69 -48.5533 2468.46" stroke="black" stroke-width="7.82134" stroke-linecap="round"/>
<path id="Vector 1186" d="M18.6927 2121.41C49.921 2068.29 84.1661 1963.09 47.7352 1903.72C11.7986 1845.16 -44.9762 1824.15 -43.0594 1819.37C-41.1425 1814.59 -80.4061 1773.44 -89.0085 1759.23C-97.6109 1745.02 -112.199 1797.94 -93.5196 1839.82C-74.8402 1881.69 -49.6755 1886.14 -47.7012 1929.3C-45.727 1972.45 20.3764 2087.93 18.6927 2121.41Z" fill="url(#paint21_linear_74_1633)" stroke="black" stroke-width="0.727752"/>
<path id="Vector 1187" d="M174.155 1848.04C144.783 1957.14 98.5004 2000.33 53.3548 2035.44C8.20914 2070.55 14.4734 2138.2 23.2487 2167.64C36.0831 2191.02 62.3627 2238.46 64.8057 2241.21C67.8595 2244.66 134.654 2245.4 156.292 2210.84C177.929 2176.27 209.217 2062.4 204.677 2007.68C200.136 1952.96 210.136 1916.72 174.155 1848.04Z" fill="url(#paint22_linear_74_1633)" stroke="black" stroke-width="0.727752"/>
<path id="Vector 1188" d="M628.632 1913.8C519.568 1871.28 283.831 1836.24 213.398 2036.25C194.709 2130.33 199.826 2171.83 204.72 2180.81C302.991 2086.29 525.353 1900.55 628.632 1913.8Z" fill="url(#paint23_linear_74_1633)"/>
<path id="Vector 1189" d="M70.9396 2019.54C75.8952 1997.14 76.5795 1954.44 71.5862 1931.94C62.7223 1891.99 29.747 1864.55 -2.96013 1843.06C-36.2429 1821.19 -60.5411 1794.01 -80.943 1760.12C-88.1964 1748.08 -92.8714 1777.53 -93.4173 1782.05C-96.6366 1808.71 -93.5712 1836.49 -78.8466 1859.19C-71.038 1871.22 -60.4566 1881.35 -53.5864 1894.03C-44.264 1911.25 -39.4609 1933.32 -33.2527 1951.8C-26.0021 1973.39 -20.4327 1995.62 -11.9379 2016.77C-4.55146 2035.16 6.22559 2052.29 12.6641 2071.03C30.6177 2123.28 35.8743 2173.87 22.6082 2227.66C12.6308 2268.11 5.8232 2308.49 -9.1184 2347.62C-20.2555 2376.79 -27.1503 2406.75 -40.0292 2435.29C-44.9919 2446.28 -50.5266 2456.79 -56.0196 2467.51C-59.1598 2473.64 -58.0371 2470.04 -61.9878 2463.13" stroke="black" stroke-width="5.09427" stroke-linecap="round"/>
<path id="Vector 1190" d="M75.6977 2233.38C56.9184 2217.92 44.3567 2191.84 35.7625 2169.61C24.4392 2140.33 19.3358 2112.38 28.5118 2081.58C37.0381 2052.97 58.0965 2034.3 79.2887 2014.82C111.978 1984.76 143.953 1955.2 161.832 1913.74C170.329 1894.03 174.516 1871.2 179.266 1850.23C179.667 1848.45 182.257 1837.53 183.632 1842.66C188.595 1861.19 200.417 1876.99 205.32 1895.99C213.301 1926.91 215.57 1956.11 214.94 1988C214.308 2019.93 210.642 2053.45 205.822 2084.98C202.825 2104.59 200.401 2124.41 197.856 2144.06C195.068 2165.59 182.916 2182.2 168.511 2197.8C158.224 2208.94 149.474 2221.24 135.668 2228.32C123.302 2234.67 111.899 2226.1 99.922 2230.56C92.7187 2233.24 92.1302 2243.58 88.2463 2248.84C77.6125 2263.25 64.3572 2276.31 55.4183 2291.79C35.4116 2326.45 13.3023 2359.98 -7.11267 2394.44C-35.1698 2441.8 -59.9505 2491.77 -91.2048 2537.02" stroke="black" stroke-width="5.09427" stroke-linecap="round"/>
<path id="Vector 1191" d="M186.853 1880.75C180.974 1886.21 179.124 1903.05 176.65 1910.71C171.408 1926.94 164.801 1942.97 160.075 1959.31C150.792 1991.41 149.796 2024.91 144.241 2057.73C139.774 2084.13 131.616 2110.72 123.411 2136.18C117.42 2154.78 108.65 2171.28 100.82 2189.06C87.5572 2219.18 73.2737 2247.72 56.1918 2275.9" stroke="black" stroke-width="5.09427" stroke-linecap="round"/>
<path id="Vector 1192" d="M300.636 1916.58C298.752 1919.07 301.737 1914.74 304.247 1913.25C314.301 1907.26 323.548 1899.9 333.98 1894.54C369.729 1876.19 411.053 1870.01 450.635 1868.48C486.607 1867.09 521.653 1871.08 556.29 1881.28C579.707 1888.18 601.456 1898.24 624.12 1906.99C624.756 1907.24 612.563 1906.75 610.015 1907.07C585.947 1910.04 564.621 1920.57 542.645 1929.92C515.561 1941.43 486.419 1947.41 461.71 1964.08C426.044 1988.15 390.839 2013.54 357.7 2040.98C316.459 2075.12 271.102 2104.41 233.176 2142.36C197.877 2177.69 162.206 2212.57 126.117 2247.1C92.7893 2279 62.9041 2314.07 31.0219 2347.36C-4.1423 2384.08 -35.0783 2428.24 -58.4953 2473.35C-71.8429 2499.05 -85.8016 2526.12 -95.0708 2553.58C-96.5116 2557.85 -98.2127 2576.21 -101.851 2566.95" stroke="black" stroke-width="5.82202" stroke-linecap="round"/>
<path id="Vector 1193" d="M574.833 1906.54C567.975 1900.85 559.684 1902.82 551.281 1903.42C539.081 1904.28 526.919 1904.67 514.688 1904.82C487.757 1905.15 458.735 1916.34 435.352 1928.86C418.002 1938.15 406.96 1952.94 392.07 1965.11C364.851 1987.37 338.331 2009.57 312.35 2033.25C295.502 2048.6 278.404 2063.7 261.456 2078.94C246.534 2092.36 237.143 2102.92 230.743 2121.89" stroke="black" stroke-width="5.82202" stroke-linecap="round"/>
</g>
<defs>
<linearGradient id="paint0_linear_74_1633" x1="397.939" y1="227.988" x2="484.818" y2="398.848" gradientUnits="userSpaceOnUse">
<stop stop-color="#3BDA38"/>
<stop offset="1" stop-color="#2C702B"/>
</linearGradient>
<linearGradient id="paint1_linear_74_1633" x1="235.509" y1="306.697" x2="313.771" y2="460.613" gradientUnits="userSpaceOnUse">
<stop stop-color="#3BDA38"/>
<stop offset="0.994792" stop-color="#1D961B"/>
</linearGradient>
<linearGradient id="paint2_linear_74_1633" x1="356.776" y1="325.895" x2="454.212" y2="517.516" gradientUnits="userSpaceOnUse">
<stop stop-color="#3BDA38"/>
<stop offset="1" stop-color="#1B701A"/>
</linearGradient>
<linearGradient id="paint3_linear_74_1633" x1="162.226" y1="594.029" x2="36.9684" y2="760.711" gradientUnits="userSpaceOnUse">
<stop stop-color="#3BDA38"/>
<stop offset="1" stop-color="#1B701A"/>
</linearGradient>
<linearGradient id="paint4_linear_74_1633" x1="185.039" y1="2575.08" x2="59.7809" y2="2741.77" gradientUnits="userSpaceOnUse">
<stop stop-color="#3BDA38"/>
<stop offset="1" stop-color="#1B701A"/>
</linearGradient>
<linearGradient id="paint5_linear_74_1633" x1="26.1667" y1="650.11" x2="-22.7212" y2="715.166" gradientUnits="userSpaceOnUse">
<stop stop-color="#35CC32"/>
<stop offset="1" stop-color="#175716"/>
</linearGradient>
<linearGradient id="paint6_linear_74_1633" x1="48.9792" y1="2631.16" x2="0.0913195" y2="2696.22" gradientUnits="userSpaceOnUse">
<stop stop-color="#35CC32"/>
<stop offset="1" stop-color="#175716"/>
</linearGradient>
<linearGradient id="paint7_linear_74_1633" x1="89.2826" y1="676.505" x2="15.1468" y2="775.159" gradientUnits="userSpaceOnUse">
<stop stop-color="#30B82E"/>
<stop offset="1" stop-color="#378536"/>
</linearGradient>
<linearGradient id="paint8_linear_74_1633" x1="112.095" y1="2657.56" x2="37.9593" y2="2756.21" gradientUnits="userSpaceOnUse">
<stop stop-color="#30B82E"/>
<stop offset="1" stop-color="#378536"/>
</linearGradient>
<linearGradient id="paint9_linear_74_1633" x1="171.3" y1="671.625" x2="88.163" y2="782.257" gradientUnits="userSpaceOnUse">
<stop stop-color="#3BDA38"/>
<stop offset="1" stop-color="#2C702B"/>
</linearGradient>
<linearGradient id="paint10_linear_74_1633" x1="194.112" y1="2652.68" x2="110.975" y2="2763.31" gradientUnits="userSpaceOnUse">
<stop stop-color="#3BDA38"/>
<stop offset="1" stop-color="#2C702B"/>
</linearGradient>
<linearGradient id="paint11_linear_74_1633" x1="223.617" y1="1039.09" x2="304.48" y2="1108.34" gradientUnits="userSpaceOnUse">
<stop stop-color="#35CC32"/>
<stop offset="1" stop-color="#175716"/>
</linearGradient>
<linearGradient id="paint12_linear_74_1633" x1="246.429" y1="3020.14" x2="327.293" y2="3089.4" gradientUnits="userSpaceOnUse">
<stop stop-color="#35CC32"/>
<stop offset="1" stop-color="#175716"/>
</linearGradient>
<linearGradient id="paint13_linear_74_1633" x1="263.344" y1="958.883" x2="385.969" y2="1063.91" gradientUnits="userSpaceOnUse">
<stop stop-color="#30B82E"/>
<stop offset="1" stop-color="#378536"/>
</linearGradient>
<linearGradient id="paint14_linear_74_1633" x1="286.157" y1="2939.94" x2="408.782" y2="3044.96" gradientUnits="userSpaceOnUse">
<stop stop-color="#30B82E"/>
<stop offset="1" stop-color="#378536"/>
</linearGradient>
<linearGradient id="paint15_linear_74_1633" x1="359.153" y1="923.798" x2="423.054" y2="978.528" gradientUnits="userSpaceOnUse">
<stop stop-color="#36B733"/>
<stop offset="1" stop-color="#1C431B"/>
</linearGradient>
<linearGradient id="paint16_linear_74_1633" x1="381.965" y1="2904.85" x2="445.867" y2="2959.58" gradientUnits="userSpaceOnUse">
<stop stop-color="#36B733"/>
<stop offset="1" stop-color="#1C431B"/>
</linearGradient>
<linearGradient id="paint17_linear_74_1633" x1="95.5102" y1="200.893" x2="77.8902" y2="258.778" gradientUnits="userSpaceOnUse">
<stop stop-color="#35CC32"/>
<stop offset="1" stop-color="#175716"/>
</linearGradient>
<linearGradient id="paint18_linear_74_1633" x1="51.9791" y1="174.574" x2="25.2594" y2="262.353" gradientUnits="userSpaceOnUse">
<stop stop-color="#30B82E"/>
<stop offset="1" stop-color="#378536"/>
</linearGradient>
<linearGradient id="paint19_linear_74_1633" x1="-4.65885" y1="187.005" x2="-18.583" y2="232.748" gradientUnits="userSpaceOnUse">
<stop stop-color="#36B733"/>
<stop offset="1" stop-color="#1C431B"/>
</linearGradient>
<linearGradient id="paint20_linear_74_1633" x1="438.654" y1="1594.87" x2="104.781" y2="2173.16" gradientUnits="userSpaceOnUse">
<stop stop-color="#3BDA38"/>
<stop offset="1" stop-color="#1B701A"/>
</linearGradient>
<linearGradient id="paint21_linear_74_1633" x1="27.741" y1="1825.69" x2="-102.569" y2="2051.4" gradientUnits="userSpaceOnUse">
<stop stop-color="#35CC32"/>
<stop offset="1" stop-color="#175716"/>
</linearGradient>
<linearGradient id="paint22_linear_74_1633" x1="238.591" y1="1885.24" x2="40.9829" y2="2227.51" gradientUnits="userSpaceOnUse">
<stop stop-color="#30B82E"/>
<stop offset="1" stop-color="#378536"/>
</linearGradient>
<linearGradient id="paint23_linear_74_1633" x1="497.463" y1="1838.06" x2="275.862" y2="2221.89" gradientUnits="userSpaceOnUse">
<stop stop-color="#3BDA38"/>
<stop offset="1" stop-color="#2C702B"/>
</linearGradient>
<clipPath id="clip0_74_1633">
<rect width="429" height="3367" fill="white"/>
</clipPath>
</defs>
</svg>
