<svg width="429" height="3367" viewBox="0 0 429 3367" fill="none" xmlns="http://www.w3.org/2000/svg">
<g id="bg-mobile" clip-path="url(#clip0_74_1633)">
<rect width="429" height="3367" fill="white"/>
<path id="Vector 1142" d="M427.219 3188.11C427.057 3167.51 434.729 3131.34 455.205 3120.24C475.403 3109.3 495.358 3112.7 495.602 3111C495.845 3109.3 514.096 3103.95 518.964 3101.27C523.831 3098.6 519.207 3116.35 506.796 3125.35C494.385 3134.35 486.354 3131.43 478.567 3143.6C470.779 3155.76 432.33 3178.14 427.219 3188.11Z" fill="url(#paint0_linear_74_1633)" stroke="black" stroke-width="0.297297"/>
<path id="Vector 1129" d="M509.865 3084.05C498.964 3086.43 474.784 3090.48 465.27 3087.62C453.378 3084.05 426.324 3099.22 417.703 3121.81C410.805 3139.89 408.685 3160.26 408.486 3168.19C411.162 3153.52 421.984 3121.75 443.865 3112C471.216 3099.81 509.865 3095.05 509.865 3084.05Z" fill="url(#paint1_linear_74_1633)" stroke="black" stroke-width="0.297297"/>
<path id="Vector 1136" d="M232.486 2936.59C270.739 2975.34 346.708 3060.15 344.567 3089.41C341.892 3125.97 373.108 3055.51 357.351 3026.68C341.594 2997.84 283.027 2950.27 270.838 2947.59C261.086 2945.45 241.207 2939.37 232.486 2936.59Z" fill="url(#paint2_linear_74_1633)"/>
<path id="Vector 1137" d="M417.109 3004.68C415.623 3004.97 354.379 3087.62 366.569 3127.76C378.758 3167.89 380.244 3139.05 385.596 3171.76C389.779 3197.32 390.707 3206.23 390.655 3207.64C391.757 3189.46 397.211 3145.78 410.271 3115.86C412.055 3070.68 399.866 3067.41 408.488 3051.05C415.385 3037.97 417.109 3014.68 417.109 3004.68Z" fill="url(#paint3_linear_74_1633)"/>
<path id="Vector 1143" d="M427.519 3165.32C427.519 3158.54 429.39 3150.42 431.442 3143.92C433.754 3136.6 438.379 3130.12 443.59 3124.44C452.842 3114.34 466.988 3111.91 480.061 3111.15C493.364 3110.38 504.951 3106.57 516.532 3100.17C520.649 3097.89 517.076 3107.21 516.478 3108.61C512.951 3116.87 507.416 3124.41 499.352 3128.52C495.075 3130.71 490.316 3131.87 486.203 3134.39C480.622 3137.82 475.536 3143.42 470.646 3147.73C464.934 3152.78 459.601 3158.29 453.601 3162.99C448.384 3167.09 442.395 3170.25 437.395 3174.6C423.452 3186.74 413.464 3200.52 408.31 3218.33C404.434 3231.72 399.651 3244.56 397.434 3258.4C395.781 3268.71 392.767 3278.55 391.725 3288.97C391.323 3292.99 391.169 3296.96 390.967 3300.98C390.852 3303.29 391.128 3302.06 393.43 3300.71" stroke="black" stroke-width="1.78378" stroke-linecap="round"/>
<path id="Vector 1133" d="M514.324 3080.49C502.84 3090.08 487.848 3092.2 474.156 3097.4C456.736 3104.01 438.301 3111.54 426.919 3127.13C417.314 3140.28 413.286 3158.03 409.741 3173.57C404.79 3195.28 399.464 3216.86 394.811 3238.65" stroke="black" stroke-width="1.78378" stroke-linecap="round"/>
<path id="Vector 1134" d="M514.304 3079.72C508.632 3080.34 503.764 3082.83 498.27 3084.06C492.527 3085.34 486.061 3084.05 480.254 3083.75C471.68 3083.3 461.715 3082.55 453.637 3085.88C441.088 3091.04 431.916 3098.27 424.55 3109.5C418.656 3118.48 418.109 3128.62 415.297 3138.69C412.505 3148.69 411.529 3158.62 409.771 3168.79C407.381 3182.62 402.793 3195.79 399.122 3209.3C395.754 3221.7 394.284 3233.97 394.396 3246.83C394.491 3257.84 393.223 3301.04 394.396 3311.84" stroke="black" stroke-width="1.78378" stroke-linecap="round"/>
<path id="Vector 1138" d="M392.678 3290.97C392.256 3281.1 393.6 3271.88 395.033 3262.16C396.953 3249.13 395.407 3235.8 393.64 3222.84C391.174 3204.76 386.89 3186.91 380.338 3169.85C375.688 3157.74 370.213 3145.89 365.178 3133.93C359.725 3120.98 353.831 3107.66 347.033 3095.35C345.294 3092.2 347.166 3093.65 348.493 3090.72C352.634 3081.59 356.359 3072.34 359.705 3062.87C364.291 3049.89 363.608 3038.45 359.838 3025.27C355.051 3008.54 344.984 2996.15 330.779 2986.22C318.265 2977.48 305.784 2968.27 292.831 2960.19C282.752 2953.9 272.311 2946.87 261.185 2942.61C253.185 2939.55 244.368 2937.7 235.909 2936.33C235.636 2936.29 231.121 2935.27 232.426 2937.03C234.207 2939.42 237.063 2941.28 239.193 2943.37C256.461 2960.28 275.772 2974.62 291.007 2993.59C304.971 3010.97 319.17 3028.47 329.618 3048.27C335.923 3060.21 342.505 3072.34 346.072 3085.43C348.796 3095.44 353.444 3104.65 357.25 3114.28C360.105 3121.5 363.384 3128.52 365.676 3135.95C368.144 3143.95 370.55 3152.06 373.571 3159.87C379.791 3175.96 385.199 3192.25 390.754 3208.57C395.72 3223.16 397.337 3237.25 397.454 3252.64C397.563 3266.9 397.426 3281.17 398.715 3295.39C399.974 3309.29 402.762 3323.04 405.216 3336.76" stroke="black" stroke-width="2.37838" stroke-linecap="round"/>
<path id="Vector 1139" d="M417.107 3006.76C413.926 3011.62 410.545 3015.9 407.771 3021.09C398.686 3038.12 387.319 3053.87 379.3 3071.47C370.819 3090.08 366.181 3109.45 368.242 3129.9C369.039 3137.81 370.141 3148.08 379.201 3150.09C380.865 3150.46 383.31 3154.15 384.034 3155.44C385.492 3158.03 385.183 3159.32 385.656 3162.21C387.699 3174.67 389.173 3187.25 391.483 3199.67C394.648 3216.69 393.791 3234.29 394.926 3251.53C395.4 3258.74 395.469 3265.89 395.687 3273.1C395.788 3276.4 396.105 3279.69 396.25 3282.98C396.307 3284.27 396.529 3287.14 396.25 3288.53C395.643 3291.56 393.567 3290.82 391.483 3292.16" stroke="black" stroke-width="2.37838" stroke-linecap="round"/>
<path id="Vector 1140" d="M416.565 3008.54C416.203 3010.91 416.965 3012.98 417.496 3015.28C418.293 3018.72 418.399 3022.19 418.228 3025.72C417.751 3035.55 412.873 3043.99 410.913 3053.47C408.916 3063.12 408.418 3074.16 410.049 3083.92C412.233 3096.99 416.566 3107.37 411.578 3120.46C404.066 3140.16 395.077 3159.05 393.591 3180.41C392.409 3197.39 393.325 3213.84 394.156 3230.79C395.019 3248.39 394.241 3265.84 396.251 3283.41C398.062 3299.24 400.717 3315.09 405.793 3330.22" stroke="black" stroke-width="2.37838" stroke-linecap="round"/>
<path id="Vector 1141" d="M411.757 3018.65C408.421 3028.45 404.676 3038.05 402.423 3048.18C399.466 3061.47 396.659 3074.88 394.289 3088.28C391.857 3102.03 391.898 3115.13 391.955 3128.98C392.007 3141.62 390.778 3153.97 390.255 3166.57C389.667 3180.74 390.543 3194.92 390.722 3209.08C390.889 3222.37 391.266 3235.23 392.522 3248.46C393.755 3261.44 394.49 3274.57 394.955 3287.6C395.211 3294.75 396.452 3301.7 395.555 3308.81" stroke="black" stroke-width="2.37838" stroke-linecap="round"/>
<path id="Vector 1162" d="M359.164 3358.12C359.273 3328.28 366.571 3268.71 394.889 3269.13C423.208 3269.55 432.307 3327.43 433.317 3356.31C419.178 3363.89 384.554 3374.87 359.164 3358.12Z" fill="url(#paint4_linear_74_1633)" stroke="black" stroke-width="2.37838"/>
<path id="Vector 1162_2" d="M79.6488 3106.35C80.7256 3106.98 106.291 3187.62 86.0917 3215.59C65.892 3243.55 72.4372 3220.72 59.5411 3244.73C49.4605 3263.5 46.3585 3270.18 46.0221 3271.29C50.0219 3256.85 57.4422 3221.43 55.2736 3194.67C65.9543 3159.04 76.3089 3159.75 73.9694 3144.73C72.0977 3132.71 76.9758 3114.14 79.6488 3106.35Z" fill="url(#paint5_linear_74_1633)"/>
<path id="Vector 1163" d="M79.0928 3107.97C80.2676 3112.61 81.7566 3116.83 82.5261 3121.61C85.0464 3137.28 89.6826 3152.57 91.2193 3168.4C92.8443 3185.15 91.2792 3201.45 84.2146 3216.81C81.485 3222.74 77.8845 3230.44 70.3008 3229.58C68.9078 3229.42 66.0178 3231.65 65.112 3232.45C63.2866 3234.08 63.1806 3235.17 62.0417 3237.29C57.1255 3246.43 52.6195 3255.82 47.5056 3264.87C40.4986 3277.26 36.4645 3291.18 30.9773 3304.29C28.6846 3309.77 26.7196 3315.32 24.6244 3320.87C23.6667 3323.4 22.5415 3325.87 21.549 3328.4C21.1592 3329.39 20.2212 3331.56 20.0669 3332.71C19.7304 3335.23 21.5431 3335.21 22.8047 3336.81" stroke="black" stroke-width="1.95601" stroke-linecap="round"/>
<path id="Vector 1164" d="M79.0407 3109.5C78.6884 3111.45 77.5444 3112.85 76.5169 3114.5C74.9773 3116.96 73.9682 3119.63 73.1603 3122.42C70.906 3130.19 72.4461 3138.06 71.4397 3145.96C70.4143 3154 67.8526 3162.72 63.9784 3169.88C58.7897 3179.46 52.646 3186.38 53.032 3197.89C53.6132 3215.22 55.5592 3232.32 51.0117 3249.33C47.3965 3262.85 42.2902 3275.4 37.1189 3288.36C31.7459 3301.82 27.6916 3315.6 21.4366 3328.73C15.8 3340.56 9.50221 3352.18 1.51393 3362.59" stroke="black" stroke-width="1.95601" stroke-linecap="round"/>
<path id="Vector 1165" d="M80.0816 3118.65C80.0597 3127.16 80.4081 3135.63 79.4557 3144.11C78.2059 3155.24 76.8085 3166.42 75.0733 3177.48C73.2931 3188.82 69.7629 3199 66.0202 3209.76C62.6031 3219.58 60.2627 3229.51 57.3035 3239.45C53.9773 3250.63 49.508 3261.43 45.5869 3272.4C41.9079 3282.69 38.1801 3292.59 33.6711 3302.54C29.2453 3312.31 25.1671 3322.33 21.3244 3332.34C19.2183 3337.83 16.395 3342.91 15.1941 3348.68" stroke="black" stroke-width="1.95601" stroke-linecap="round"/>
<path id="Vector 1166" d="M69.602 3279C74.491 3264.38 88.7066 3240.65 105.887 3237.77C122.834 3234.93 136.122 3242.18 136.707 3241.04C137.293 3239.89 151.504 3240.53 155.597 3239.82C159.689 3239.11 152.105 3250.56 141.139 3253.91C130.173 3257.27 125.202 3253.25 116.738 3259.96C108.275 3266.68 75.6399 3273.18 69.602 3279Z" fill="url(#paint6_linear_74_1633)" stroke="black" stroke-width="0.182001"/>
<path id="Vector 1167" d="M95.6243 3204.78C79.8738 3228.24 79.329 3244.06 80.1217 3258.34C80.9145 3272.62 67.1271 3282.55 60.1343 3285.73C53.6177 3287.15 40.3543 3289.98 39.4335 3289.98C38.2825 3289.97 27.171 3277.49 30.1363 3267.73C33.1016 3257.98 49.438 3233.37 60.5041 3225.24C71.5703 3217.11 76.7633 3209.27 95.6243 3204.78Z" fill="url(#paint7_linear_74_1633)" stroke="black" stroke-width="0.182001"/>
<path id="Vector 1168" d="M8.58094 3129.87C34.5127 3143.45 79.8381 3182.16 53.6853 3228.29C39.0111 3247.27 30.3444 3253.12 27.8453 3253.67C29.5321 3219.61 28.0407 3147.17 8.58094 3129.87Z" fill="url(#paint8_linear_74_1633)"/>
<path id="Vector 1169" d="M80.2316 3252.41C83.6423 3247.8 91.5826 3240.66 96.6469 3237.9C105.637 3233.01 116.229 3234.72 125.654 3237.36C135.244 3240.05 144.36 3240.17 154.102 3238.45C157.566 3237.84 152.778 3243.56 152.015 3244.4C147.516 3249.39 141.774 3253.37 135.075 3254.32C131.522 3254.83 127.875 3254.5 124.354 3255.28C119.577 3256.35 114.624 3259.07 110.119 3260.94C104.858 3263.11 99.7503 3265.72 94.3661 3267.59C89.6844 3269.21 84.6833 3270 80.0923 3271.86C67.2903 3277.05 56.8843 3284.37 48.9196 3295.71C42.9294 3304.23 36.432 3312.15 31.5056 3321.39C27.8335 3328.29 23.3164 3334.51 20.0495 3341.62C18.7907 3344.36 17.7174 3347.13 16.5984 3349.93C15.9587 3351.53 16.4517 3350.73 18.4046 3350.34" stroke="black" stroke-width="1.274" stroke-linecap="round"/>
<path id="Vector 1170" d="M39.122 3286.64C45.1219 3287.64 52.1034 3285.72 57.7069 3283.69C65.0899 3281.02 71.2 3277.39 75.5005 3270.6C79.4964 3264.3 79.5577 3257.26 79.752 3250.06C80.0517 3238.96 80.3754 3228.07 85.259 3217.89C87.5797 3213.05 91.198 3208.51 94.3736 3204.17C94.6417 3203.81 96.2767 3201.52 95.0828 3202.11C90.7742 3204.21 85.8514 3204.58 81.4641 3206.78C74.3217 3210.35 68.4424 3214.72 62.5304 3220.07C56.6124 3225.44 50.8939 3231.63 45.7384 3237.72C42.5324 3241.51 39.1922 3245.22 35.9045 3248.93C32.3023 3252.99 31.165 3258.01 30.5893 3263.29C30.1782 3267.06 29.2956 3270.73 30.2266 3274.49C31.0604 3277.87 34.5501 3278.61 35.6754 3281.6C36.3521 3283.4 34.4996 3285.21 34.145 3286.81C33.1742 3291.18 32.888 3295.82 31.4362 3300.05C28.1867 3309.52 25.4935 3319.2 22.3475 3328.71C18.0238 3341.77 12.6689 3354.66 9.26892 3367.98" stroke="black" stroke-width="1.274" stroke-linecap="round"/>
<path id="Vector 1171" d="M87.3701 3207.76C87.3055 3209.76 84.4329 3212.88 83.3949 3214.6C81.1962 3218.25 79.2568 3222.13 76.9513 3225.71C72.4226 3232.73 66.2686 3238.42 60.99 3244.86C56.7452 3250.04 53.0706 3255.94 49.6158 3261.67C47.0931 3265.86 45.4218 3270.22 43.354 3274.62C39.8519 3282.07 36.8161 3289.45 34.3061 3297.3" stroke="black" stroke-width="1.274" stroke-linecap="round"/>
<path id="Vector 1172" d="M61.927 3192.18C61.7675 3192.95 62.0927 3191.67 61.9625 3190.95C61.4407 3188.07 61.3099 3185.12 60.6066 3182.27C58.1964 3172.52 52.5744 3163.71 46.3623 3155.99C40.7167 3148.98 34.2082 3143.03 26.5958 3138.17C21.4493 3134.89 15.9795 3132.44 10.6066 3129.6C10.4557 3129.52 12.5494 3131.74 12.9086 3132.27C16.3017 3137.3 17.8172 3143.05 19.6643 3148.73C21.9406 3155.73 25.6001 3162.21 26.5132 3169.61C27.8312 3180.29 28.8256 3191.09 29.094 3201.85C29.4281 3215.24 31.3535 3228.6 30.4249 3241.99C29.5607 3254.45 28.8398 3266.9 28.2542 3279.38C27.7135 3290.9 26.0078 3302.3 24.9649 3313.78C23.8147 3326.44 20.5666 3339.53 15.9065 3351.36C13.2503 3358.1 10.4382 3365.17 6.78161 3371.43C6.21323 3372.4 3.02922 3375.74 5.37423 3374.91" stroke="black" stroke-width="1.456" stroke-linecap="round"/>
<path id="Vector 1173" d="M18.7862 3138.82C20.986 3139.18 21.976 3141.07 23.2439 3142.75C25.0847 3145.19 27.0077 3147.55 28.9887 3149.88C33.3508 3155.01 36.0062 3162.33 37.4854 3168.79C38.583 3173.59 37.6073 3178.1 37.7569 3182.91C38.0304 3191.7 38.198 3200.35 38.0003 3209.13C37.8721 3214.83 37.8324 3220.54 37.7411 3226.24C37.6606 3231.26 37.2123 3234.76 34.6855 3239.08" stroke="black" stroke-width="1.456" stroke-linecap="round"/>
<path id="Vector 1174" d="M26.7369 3382.38C32.6058 3365.08 40.2234 3329.14 23.7427 3323.75C7.26208 3318.37 -9.51137 3350.07 -15.838 3366.59C-9.15895 3373.79 8.70672 3387.03 26.7369 3382.38Z" fill="url(#paint9_linear_74_1633)" stroke="black" stroke-width="1.274"/>
<path id="Vector 1162_3" d="M456.33 198.297C415.192 227.807 346.891 305.002 402.787 377.708C432.486 406.673 448.736 414.605 453.149 414.951C442.06 357.032 427.171 232.615 456.33 198.297Z" fill="url(#paint10_linear_74_1633)"/>
<path id="Vector 1163_2" d="M174.484 337.727C229.176 355.938 341.564 399.518 353.581 428.152C368.603 463.944 364.252 382.473 335.544 362.82C306.837 343.166 228.742 326.381 215.955 329.705C205.725 332.364 184.046 336.161 174.484 337.727Z" fill="url(#paint11_linear_74_1633)"/>
<path id="Vector 1164_2" d="M381.38 313.384C380.12 314.378 361.984 421.761 392.746 453.787C423.508 485.813 411.073 457.886 431.815 486.18C448.029 508.296 453.181 516.26 453.81 517.617C446.122 499.925 430.314 456.096 428.282 421.594C408.281 378.093 395.209 380.856 395.499 361.288C395.731 345.634 386.183 322.829 381.38 313.384Z" fill="url(#paint12_linear_74_1633)"/>
<path id="Vector 1165_2" d="M495.701 595.278C490.569 586.171 487.412 576.823 484.099 566.961C479.66 553.747 471.808 541.913 463.919 530.527C452.916 514.647 440.305 499.854 425.937 486.9C415.739 477.707 404.887 469.152 394.398 460.284C383.037 450.678 371.08 440.93 358.758 432.575C355.605 430.437 358.068 430.909 357.916 427.51C357.442 416.905 356.518 406.386 355.132 395.846C353.233 381.399 347.098 370.929 337.216 360.302C324.671 346.81 309.223 339.945 291.055 337.393C275.05 335.145 258.852 332.444 242.751 331.034C230.223 329.937 216.997 328.316 204.453 329.633C195.432 330.58 186.224 333.065 177.587 335.838C177.309 335.928 172.56 337.134 174.633 338.164C177.464 339.57 181.053 339.957 184.063 340.903C208.475 348.577 233.58 352.843 257.057 363.431C278.577 373.136 300.373 382.834 319.733 396.503C331.415 404.751 343.443 413.033 353.094 423.683C360.467 431.819 369.272 438.278 377.484 445.537C383.642 450.981 390.107 456.035 395.835 461.947C402.005 468.316 408.163 474.807 414.763 480.732C428.354 492.931 441.274 505.709 454.347 518.443C466.034 529.827 474.323 542.353 481.818 556.819C488.763 570.222 495.484 583.759 503.522 596.559C511.377 609.066 520.608 620.707 529.507 632.474" stroke="black" stroke-width="2.51796" stroke-linecap="round"/>
<path id="Vector 1166_2" d="M382.379 315.348C381.713 321.467 380.572 327.12 380.448 333.357C380.044 353.783 376.873 374.097 377.753 394.558C378.683 416.195 383.6 436.699 395.358 455.009C399.901 462.083 405.87 471.249 415.384 468.797C417.132 468.347 421.214 470.664 422.513 471.528C425.131 473.27 425.462 474.644 427.294 477.14C435.2 487.916 442.627 499.082 450.767 509.695C461.921 524.236 469.558 541.259 478.902 556.984C482.807 563.555 486.306 570.278 489.972 576.975C491.647 580.036 493.525 582.987 495.242 586.026C495.917 587.219 497.502 589.819 497.905 591.263C498.785 594.411 496.471 594.71 495.15 596.979" stroke="black" stroke-width="2.51796" stroke-linecap="round"/>
<path id="Vector 1167_2" d="M382.722 317.292C383.52 319.705 385.23 321.29 386.835 323.205C389.24 326.074 391.005 329.298 392.534 332.704C396.801 342.21 396.248 352.514 398.946 362.4C401.695 372.47 406.524 383.13 412.745 391.556C421.076 402.841 430.148 410.56 431.719 425.3C434.085 447.499 434.668 469.642 443.514 490.51C450.546 507.101 459.306 522.186 468.22 537.778C477.483 553.978 485.121 570.816 495.447 586.432C504.753 600.504 514.864 614.184 526.913 626.025" stroke="black" stroke-width="2.51796" stroke-linecap="round"/>
<path id="Vector 1168_2" d="M383.035 329.138C384.589 339.987 385.663 350.847 388.397 361.486C391.985 375.448 395.77 389.449 399.964 403.234C404.267 417.376 410.591 429.718 417.29 442.759C423.406 454.665 428.17 466.905 433.724 479.05C439.967 492.7 447.6 505.666 454.565 518.946C461.099 531.405 467.626 543.362 475.158 555.24C482.551 566.899 489.545 578.937 496.238 591.012C499.906 597.631 504.416 603.599 506.98 610.738" stroke="black" stroke-width="2.51796" stroke-linecap="round"/>
<path id="Vector 1169_2" d="M379.983 317.858C380.44 319.128 379.576 317.026 379.626 315.763C379.826 310.706 379.339 305.618 379.858 300.573C381.637 283.285 389.143 266.847 397.924 252.137C405.903 238.768 415.616 227.004 427.482 216.853C435.505 209.99 444.283 204.479 452.801 198.327C453.04 198.155 449.989 202.461 449.502 203.459C444.902 212.884 443.692 223.1 441.896 233.271C439.683 245.805 434.976 257.779 435.194 270.67C435.508 289.276 436.408 308.027 438.538 326.51C441.189 349.514 441.11 372.865 445.923 395.565C450.403 416.693 454.637 437.852 458.644 459.08C462.345 478.683 468.01 497.789 472.56 517.199C477.579 538.608 486.293 560.239 497.121 579.365C503.292 590.267 509.812 601.711 517.581 611.548C518.789 613.077 525.045 618.025 520.828 617.159" stroke="black" stroke-width="2.51796" stroke-linecap="round"/>
<path id="Vector 1170_2" d="M417.844 397.594C420.698 402.029 425.002 405.205 429.771 407.51C434.367 409.732 439.338 411.366 444.195 412.927C445.411 413.318 450.19 413.619 448.753 415.068" stroke="black" stroke-width="2.51796" stroke-linecap="round"/>
<path id="Vector 1171_2" d="M441.015 216.089C437.334 217.233 436.093 220.703 434.327 223.89C431.763 228.516 429.037 233.018 426.206 237.487C419.972 247.327 417.185 260.488 416.209 271.917C415.484 280.398 418.241 287.889 419.143 296.158C420.791 311.274 422.586 326.126 425.041 341.128C426.633 350.857 428.074 360.616 429.603 370.355C430.949 378.93 432.561 384.824 437.929 391.619" stroke="black" stroke-width="2.51796" stroke-linecap="round"/>
<path id="Vector 1162_4" d="M183.628 610.112C182.225 609.439 80.9681 639.505 66.2158 679.97C51.4635 720.435 70.4729 697.679 54.6924 727.825C42.357 751.39 37.622 759.278 36.7085 760.404C48.8327 746.154 80.2486 713.671 109.426 697.167C138.766 661.172 130.778 650.969 147.942 642.865C161.673 636.382 177.454 618.328 183.628 610.112Z" fill="url(#paint13_linear_74_1633)"/>
<path id="Vector 1163_3" d="M182.345 611.821C176.731 613.854 171.321 615.274 165.838 617.83C147.878 626.201 128.833 632.116 111.392 641.619C92.9462 651.669 77.191 664.708 66.2677 682.766C62.0471 689.744 56.6147 698.856 62.8126 706.094C63.951 707.423 63.6771 711.968 63.4792 713.468C63.0805 716.491 62.0254 717.366 60.6335 720.028C54.6257 731.514 48.0747 742.751 42.3089 754.372C34.4088 770.294 22.8468 784.215 13.1433 799.068C9.08898 805.273 4.7287 811.192 0.462102 817.244C-1.48819 820.01 -3.25584 822.906 -5.16864 825.699C-5.91979 826.796 -7.50693 829.286 -8.59199 830.254C-10.9575 832.365 -12.2063 830.478 -14.7468 830.296" stroke="black" stroke-width="2.44217" stroke-linecap="round"/>
<path id="Vector 1164_3" d="M180.798 612.95C179.037 614.675 178.388 616.84 177.406 619.056C175.934 622.376 173.88 625.289 171.567 628.076C165.112 635.851 155.902 639.77 148.446 646.341C140.85 653.035 133.629 661.793 128.949 670.809C122.68 682.884 119.832 694.08 107.667 701.742C89.3455 713.283 70.3123 723.247 55.9174 739.862C44.4732 753.071 35.0768 767.141 25.3063 781.563C15.1547 796.547 3.7533 810.389 -5.43491 826.051C-13.7149 840.164 -21.3104 854.811 -26.4763 870.361" stroke="black" stroke-width="2.44217" stroke-linecap="round"/>
<path id="Vector 1165_3" d="M170.616 618.282C161.832 624.268 152.834 629.841 144.736 636.765C134.111 645.852 123.534 655.127 113.321 664.666C102.844 674.452 94.7966 685.231 86.3013 696.634C78.5453 707.044 69.9202 716.42 61.7166 726.443C52.4956 737.709 44.464 749.893 35.8744 761.629C27.8152 772.64 20.1897 783.431 13.0627 795.062C6.06709 806.479 -1.42898 817.71 -9.08641 828.696C-13.2833 834.717 -16.5547 841.192 -21.6759 846.474" stroke="black" stroke-width="2.44217" stroke-linecap="round"/>
<path id="Vector 1166_3" d="M12.2307 741.431C23.91 726.142 38.4847 694.822 29.4271 675.049C20.4923 655.543 3.68499 646.893 4.45892 645.484C5.23286 644.076 -5.38838 629.841 -7.51995 625.113C-9.65151 620.384 -16.1655 636.239 -11.9518 649.923C-7.73809 663.606 -0.105155 665.931 -1.1177 679.383C-2.13025 692.834 14.0129 731.116 12.2307 741.431Z" fill="url(#paint14_linear_74_1633)" stroke="black" stroke-width="0.227237"/>
<path id="Vector 1167_3" d="M70.7097 662.548C57.4991 695.258 41.527 706.905 26.2116 716.089C10.8963 725.273 10.2915 746.478 11.9035 755.933C15.0018 763.662 21.3619 779.356 22.0154 780.302C22.8324 781.484 43.5083 784.231 51.5164 774.331C59.5245 764.431 73.5091 730.313 74.1615 713.18C74.814 696.047 79.2778 685.189 70.7097 662.548Z" fill="url(#paint15_linear_74_1633)" stroke="black" stroke-width="0.227237"/>
<path id="Vector 1168_3" d="M209.108 700.037C176.902 682.752 105.15 663.017 75.7893 722.362C66.4546 750.821 66.4786 763.877 67.6574 766.847C101.676 741.247 177.593 692.045 209.108 700.037Z" fill="url(#paint16_linear_74_1633)"/>
<path id="Vector 1169_3" d="M32.2592 711.823C34.6385 705.066 36.4579 691.856 35.7572 684.693C34.5134 671.977 25.3252 662.228 15.9961 654.336C6.50268 646.304 -0.00607937 636.966 -5.05438 625.694C-6.84918 621.686 -9.40708 630.641 -9.74648 632.022C-11.7478 640.164 -11.8431 648.888 -8.13348 656.479C-6.16621 660.505 -3.26731 664.04 -1.6153 668.231C0.626372 673.918 1.28415 680.942 2.51288 686.904C3.94791 693.866 4.83731 700.968 6.67426 707.844C8.27153 713.822 10.9672 719.539 12.2576 725.589C15.856 742.459 15.5808 758.34 9.44418 774.513C4.82886 786.675 1.19873 798.936 -4.90574 810.503C-9.45588 819.126 -12.7206 828.151 -17.7869 836.512C-19.7391 839.734 -21.8503 842.784 -23.9564 845.899C-25.1603 847.68 -24.6772 846.609 -25.6415 844.317" stroke="black" stroke-width="1.59066" stroke-linecap="round"/>
<path id="Vector 1170_3" d="M25.6881 778.285C20.449 772.786 17.537 764.23 15.7097 757.016C13.3023 747.512 12.7726 738.656 16.776 729.456C20.4959 720.908 27.7259 715.915 35.0282 710.673C46.2924 702.587 57.3161 694.627 64.4189 682.448C67.7944 676.66 69.9519 669.74 72.2135 663.418C72.4045 662.884 73.6185 659.595 73.8516 661.238C74.6928 667.166 77.762 672.511 78.5668 678.583C79.877 688.468 79.4813 697.604 78.0851 707.467C76.6875 717.34 74.2896 727.59 71.6085 737.183C69.9413 743.149 68.444 749.201 66.9155 755.196C65.2408 761.764 60.8487 766.456 55.7965 770.749C52.1888 773.814 49.0135 777.297 44.4673 778.974C40.3954 780.476 37.1834 777.39 33.303 778.322C30.9692 778.883 30.3977 782.065 28.9957 783.55C25.1572 787.616 20.5569 791.165 17.2033 795.628C9.69749 805.616 1.58207 815.178 -6.04306 825.091C-16.5226 838.715 -26.0849 853.272 -37.4758 866.121" stroke="black" stroke-width="1.59066" stroke-linecap="round"/>
<path id="Vector 1171_3" d="M73.4136 673.164C71.3858 674.636 70.1784 679.787 69.1231 682.068C66.8877 686.899 64.2358 691.622 62.156 696.509C58.0705 706.108 56.5008 716.454 53.5432 726.42C51.1648 734.435 47.6353 742.369 44.1336 749.953C41.5767 755.491 38.2373 760.275 35.1405 765.493C29.8959 774.329 24.3944 782.637 18.0386 790.73" stroke="black" stroke-width="1.59066" stroke-linecap="round"/>
<path id="Vector 1172_2" d="M107.335 688.554C106.658 689.253 107.746 688.026 108.58 687.657C111.922 686.179 115.065 684.246 118.5 682.978C130.272 678.635 143.314 678.276 155.64 679.291C166.843 680.214 177.556 682.77 187.908 687.235C194.907 690.254 201.27 694.192 207.965 697.758C208.154 697.858 204.392 697.25 203.591 697.251C196.019 697.265 189.012 699.728 181.848 701.798C173.019 704.348 163.761 705.102 155.474 709.342C143.513 715.46 131.645 722.004 120.341 729.261C106.272 738.292 91.1102 745.663 77.9258 756C65.6544 765.62 53.2844 775.091 40.7981 784.437C29.2673 793.067 18.6838 802.813 7.54805 811.933C-4.73399 821.992 -15.9856 834.516 -24.9418 847.615C-30.0468 855.081 -35.3924 862.946 -39.2992 871.109C-39.9065 872.377 -41.125 878.006 -41.9039 874.997" stroke="black" stroke-width="1.81789" stroke-linecap="round"/>
<path id="Vector 1173_2" d="M192.705 695.764C190.793 693.741 188.149 694.04 185.522 693.908C181.708 693.717 177.923 693.381 174.126 692.967C165.766 692.053 156.349 694.431 148.63 697.431C142.902 699.658 138.923 703.826 133.849 707.039C124.575 712.912 115.518 718.798 106.574 725.158C100.773 729.282 94.9055 733.319 89.0782 737.406C83.9477 741.005 80.6394 743.923 77.9416 749.563" stroke="black" stroke-width="1.81789" stroke-linecap="round"/>
<path id="Vector 1162_5" d="M341.689 1064.9C322.7 1048.37 283.023 1026.73 256.45 1036.91C230.238 1046.95 217.541 1068.17 215.767 1067.04C213.993 1065.92 194.521 1078.6 188.17 1080.99C181.818 1083.38 201.976 1093.2 220.193 1088.84C238.411 1084.48 242.083 1074.71 259.562 1077.15C277.04 1079.6 328.369 1061.71 341.689 1064.9Z" fill="url(#paint17_linear_74_1633)" stroke="black" stroke-width="0.297297"/>
<path id="Vector 1163_4" d="M243.572 981.968C285.178 1001.94 299.053 1023.77 309.767 1044.53C320.481 1065.29 348.117 1067.85 360.596 1066.54C370.946 1063.14 391.968 1056.14 393.257 1055.37C394.869 1054.4 400.179 1027.63 387.921 1016.35C375.663 1005.07 332.283 983.965 309.968 981.684C287.652 979.403 273.848 972.67 243.572 981.968Z" fill="url(#paint18_linear_74_1633)" stroke="black" stroke-width="0.297297"/>
<path id="Vector 1164_4" d="M392.125 885.299C386.841 895.126 374.183 916.121 365.827 921.49C355.381 928.202 349.299 958.612 360.852 979.858C370.094 996.855 384.189 1011.72 390.081 1017.03C380.682 1005.45 363.591 976.568 370.418 953.606C378.952 924.903 400.48 892.455 392.125 885.299Z" fill="url(#paint19_linear_74_1633)" stroke="black" stroke-width="0.297297"/>
<path id="Vector 1165_4" d="M304.699 1036.28C296.075 1032.61 278.98 1029.13 269.569 1029.45C252.862 1030.01 239.368 1041.2 228.285 1052.72C217.006 1064.44 204.272 1072.16 189.133 1077.82C183.751 1079.82 195.229 1083.91 197.004 1084.47C207.468 1087.76 218.851 1088.61 229.071 1084.4C234.491 1082.17 239.349 1078.68 244.959 1076.87C252.57 1074.42 261.796 1074.15 269.683 1073.04C278.894 1071.75 288.24 1071.18 297.37 1069.35C305.31 1067.77 312.998 1064.72 321.005 1063.54C343.332 1060.25 364.044 1061.93 384.648 1071.3C400.144 1078.34 415.848 1084.1 430.443 1093.03C441.321 1099.69 452.833 1104.71 463.327 1112.02C467.371 1114.84 471.177 1117.85 475.068 1120.86C477.293 1122.58 475.935 1121.86 472.862 1122.93" stroke="black" stroke-width="2.08108" stroke-linecap="round"/>
<path id="Vector 1166_4" d="M390.927 1050.41C383.311 1056.79 371.896 1059.88 362.326 1061.66C349.716 1064.01 338.108 1063.96 326.43 1057.97C315.58 1052.4 309.664 1042.54 303.429 1032.57C293.81 1017.19 284.337 1002.13 269.027 991.844C261.751 986.954 252.897 983.56 244.83 980.08C244.149 979.786 239.956 977.926 242.121 977.759C249.931 977.155 257.166 973.594 265.161 973.049C278.176 972.163 290.071 973.441 302.833 976.087C315.608 978.735 328.791 982.721 341.092 987.021C348.742 989.696 356.52 992.155 364.22 994.651C372.656 997.385 378.416 1003.51 383.599 1010.47C387.3 1015.43 391.583 1019.87 393.394 1025.94C395.015 1031.39 390.717 1035.32 391.611 1040.47C392.149 1043.56 396.255 1044.57 398.077 1046.53C403.066 1051.88 407.316 1058.18 412.863 1062.93C425.279 1073.56 437.087 1084.96 449.394 1095.74C466.308 1110.56 484.517 1124.26 500.343 1140.2" stroke="black" stroke-width="2.08108" stroke-linecap="round"/>
<path id="Vector 1167_4" d="M257.658 979.322C259.411 982.093 266.035 984.099 268.925 985.667C275.047 988.988 280.992 992.845 287.199 995.968C299.392 1002.1 312.769 1005.01 325.534 1009.71C335.8 1013.48 345.865 1018.75 355.475 1023.96C362.493 1027.76 368.46 1032.51 375.015 1036.99C386.115 1044.58 396.503 1052.45 406.54 1061.43" stroke="black" stroke-width="2.08108" stroke-linecap="round"/>
<path id="Vector 1168_4" d="M392.315 879.591C392.129 894.552 383.991 907.321 379.031 921.101C372.722 938.633 366.45 957.534 370.884 976.318C374.625 992.167 385.486 1006.77 394.986 1019.58C408.253 1037.46 421.179 1055.54 434.699 1073.25" stroke="black" stroke-width="2.08108" stroke-linecap="round"/>
<path id="Vector 1169_4" d="M391.721 879.108C388.499 883.817 387.228 889.138 384.586 894.108C381.823 899.304 376.638 903.376 372.629 907.588C366.711 913.808 359.665 920.894 356.933 929.191C352.69 942.078 352.217 953.75 355.951 966.646C358.939 976.965 366.283 983.975 372.102 992.661C377.881 1001.29 384.788 1008.49 391.372 1016.44C400.325 1027.26 407.337 1039.3 415.215 1050.88C422.442 1061.51 430.8 1070.6 440.647 1078.89C449.065 1085.97 481.055 1115.04 490.022 1121.17" stroke="black" stroke-width="2.08108" stroke-linecap="round"/>
<path id="Vector 1174_2" d="M46.7908 249.312C50.8488 235.594 63.2614 213.107 79.1064 209.873C94.7365 206.683 107.302 212.981 107.808 211.898C108.314 210.816 121.519 210.95 125.293 210.156C129.067 209.362 122.404 220.227 112.34 223.698C102.276 227.17 97.5328 223.606 89.9003 230.114C82.2678 236.621 52.2024 243.718 46.7908 249.312Z" fill="url(#paint20_linear_74_1633)" stroke="black" stroke-width="0.16896"/>
<path id="Vector 1175" d="M68.5048 179.604C54.6591 201.882 54.6711 216.58 55.8737 229.803C57.0763 243.027 44.6094 252.69 38.2257 255.869C32.2261 257.398 20.0134 260.463 19.1589 260.485C18.0906 260.513 7.37368 249.303 9.80571 240.153C12.2377 231.003 26.5896 207.643 36.5905 199.737C46.5914 191.831 51.1531 184.389 68.5048 179.604Z" fill="url(#paint21_linear_74_1633)" stroke="black" stroke-width="0.16896"/>
<path id="Vector 1176" d="M-32.2181 178.616C-26.685 181.713 -14.2076 187.913 -8.56285 187.936C-1.50692 187.964 10.6928 200.685 11.641 214.396C12.3995 225.365 10.1806 236.794 8.97628 241.137C9.94883 232.72 9.32325 213.655 -0.959474 204.732C-13.8129 193.579 -34.0386 184.596 -32.2181 178.616Z" fill="url(#paint22_linear_74_1633)" stroke="black" stroke-width="0.16896"/>
<path id="Vector 1177" d="M55.7825 224.301C58.796 219.909 65.9292 213.023 70.5376 210.302C78.7183 205.472 88.6011 206.713 97.4316 208.853C106.418 211.031 114.879 210.843 123.861 208.931C127.054 208.251 122.8 213.714 122.119 214.523C118.108 219.296 112.912 223.179 106.727 224.281C103.447 224.865 100.053 224.675 96.8125 225.521C92.4149 226.669 87.9089 229.355 83.7904 231.232C78.9804 233.424 74.3265 236.005 69.3925 237.917C65.1022 239.58 60.4878 240.469 56.2893 242.347C44.5818 247.586 35.1668 254.716 28.1481 265.493C22.8694 273.599 17.1001 281.156 12.8319 289.894C9.6504 296.408 5.66299 302.326 2.8648 309.035C1.78655 311.62 0.881357 314.226 -0.0653672 316.856C-0.606586 318.36 -0.17539 317.6 1.62364 317.174" stroke="black" stroke-width="1.18272" stroke-linecap="round"/>
<path id="Vector 1178" d="M18.7617 257.396C24.361 258.13 30.7757 256.126 35.9081 254.06C42.6704 251.337 48.2205 247.77 51.9883 241.332C55.4894 235.35 55.3162 228.819 55.261 222.135C55.176 211.826 55.1203 201.716 59.3182 192.109C61.3131 187.544 64.5215 183.214 67.3258 179.083C67.5626 178.735 69.0048 176.563 67.9162 177.144C63.9877 179.239 59.4324 179.74 55.4338 181.92C48.9241 185.468 43.6123 189.713 38.3025 194.877C32.9873 200.046 27.8845 205.981 23.3005 211.798C20.4498 215.416 17.4724 218.969 14.5434 222.516C11.3342 226.402 10.4432 231.097 10.0817 236.013C9.82353 239.524 9.1247 242.958 10.1117 246.423C10.9957 249.527 14.2576 250.101 15.3994 252.84C16.0862 254.488 14.4266 256.226 14.1498 257.719C13.3921 261.807 13.2785 266.126 12.0698 270.097C9.36461 278.984 7.18246 288.05 4.57467 296.976C0.990686 309.243 -3.55618 321.369 -6.27477 333.844" stroke="black" stroke-width="1.18272" stroke-linecap="round"/>
<path id="Vector 1179" d="M60.9456 182.636C60.9512 184.499 58.388 187.483 57.4814 189.117C55.5609 192.578 53.8885 196.242 51.8664 199.634C47.8945 206.297 42.371 211.777 37.6843 217.923C33.9154 222.866 30.6993 228.465 27.6814 233.894C25.4778 237.858 24.0699 241.961 22.2953 246.109C19.2897 253.133 16.7145 260.08 14.6426 267.446" stroke="black" stroke-width="1.18272" stroke-linecap="round"/>
<path id="Vector 1180" d="M-34.0507 175.938C-29.3943 183.053 -21.5949 186.69 -15.0106 191.781C-6.63384 198.259 2.14271 205.405 5.75164 215.763C8.79678 224.503 8.04931 234.819 7.4043 243.857C6.50343 256.479 5.82788 269.094 4.75238 281.709" stroke="black" stroke-width="1.18272" stroke-linecap="round"/>
<path id="Vector 1181" d="M-33.9143 175.525C-30.9319 176.799 -28.6983 178.961 -25.9145 180.537C-23.004 182.184 -19.2753 182.554 -16.0677 183.349C-11.3317 184.523 -5.79105 185.769 -1.94857 188.912C4.01986 193.795 7.8095 199.246 9.95669 206.567C11.6749 212.426 10.2945 218.028 10.1566 223.969C10.0196 229.868 8.90705 235.429 8.17899 241.251C7.18881 249.169 7.50504 257.083 7.2642 265.04C7.04326 272.339 5.8125 279.249 3.62217 286.228C1.74976 292.194 -4.71137 315.894 -7.13672 321.572" stroke="black" stroke-width="1.18272" stroke-linecap="round"/>
<path id="Vector 1182" d="M512.906 1637.74C508.184 1636.14 197.871 1770.82 166.593 1905.16C135.314 2039.51 186.964 1959.83 148.433 2061.76C118.314 2141.44 106.305 2168.35 103.836 2172.28C136.88 2122.29 224.218 2006.89 310.609 1943.16C389.992 1817.39 360.655 1788.04 412.094 1755.65C453.246 1729.73 496.449 1666.24 512.906 1637.74Z" fill="url(#paint23_linear_74_1633)"/>
<path id="Vector 1183" d="M509.485 1643.67C492.422 1652.3 475.771 1658.9 459.324 1669.14C405.456 1702.69 347.192 1728.85 295.409 1765.8C240.647 1804.87 195.591 1852.41 167.835 1914.04C157.111 1937.85 143.358 1968.92 165.857 1989.53C169.99 1993.32 170.873 2007.88 170.824 2012.72C170.723 2022.49 167.707 2025.68 164.309 2034.67C149.643 2073.51 133.154 2111.77 119.31 2150.94C100.341 2204.61 68.9567 2253.33 43.8413 2304.3C33.3475 2325.59 21.7703 2346.09 10.5422 2366.98C5.40973 2376.53 0.907665 2386.42 -4.0951 2396.04C-6.05971 2399.81 -10.1441 2408.34 -13.22 2411.84C-19.9256 2419.46 -24.6248 2413.95 -32.7716 2414.35" stroke="black" stroke-width="7.82134" stroke-linecap="round"/>
<path id="Vector 1184" d="M505.006 1647.85C500.072 1654.02 498.844 1661.15 496.577 1668.57C493.179 1679.7 487.775 1689.75 481.496 1699.51C463.975 1726.72 436.208 1742.73 415.04 1766.5C393.476 1790.72 373.901 1821.35 362.5 1851.82C347.231 1892.63 342.5 1929.32 306.783 1958.38C252.99 2002.15 196.326 2041.17 156.976 2099.55C125.691 2145.97 101.25 2194.33 75.7551 2243.95C49.2657 2295.51 18.3619 2343.92 -4.80316 2397.26C-25.6783 2445.32 -44.1717 2494.82 -54.5918 2546.25" stroke="black" stroke-width="7.82134" stroke-linecap="round"/>
<path id="Vector 1185" d="M474.691 1668.73C449.076 1691.16 422.619 1712.35 399.549 1737.49C369.276 1770.48 339.231 1804.05 310.445 1838.32C280.912 1873.48 259.489 1910.86 236.883 1950.39C216.244 1986.48 192.442 2019.62 170.231 2054.65C145.264 2094.03 124.434 2135.87 101.657 2176.49C80.2856 2214.61 60.2081 2251.86 42.0402 2291.59C24.2071 2330.59 4.71146 2369.19 -15.3921 2407.08C-26.4105 2427.84 -34.3109 2449.69 -48.5533 2468.46" stroke="black" stroke-width="7.82134" stroke-linecap="round"/>
<path id="Vector 1186" d="M18.6927 2121.41C49.921 2068.29 84.1661 1963.09 47.7352 1903.72C11.7986 1845.16 -44.9762 1824.15 -43.0594 1819.37C-41.1425 1814.59 -80.4061 1773.44 -89.0085 1759.23C-97.6109 1745.02 -112.199 1797.94 -93.5196 1839.82C-74.8402 1881.69 -49.6755 1886.14 -47.7012 1929.3C-45.727 1972.45 20.3764 2087.93 18.6927 2121.41Z" fill="url(#paint24_linear_74_1633)" stroke="black" stroke-width="0.727752"/>
<path id="Vector 1187" d="M174.155 1848.04C144.783 1957.14 98.5004 2000.33 53.3548 2035.44C8.20914 2070.55 14.4734 2138.2 23.2487 2167.64C36.0831 2191.02 62.3627 2238.46 64.8057 2241.21C67.8595 2244.66 134.654 2245.4 156.292 2210.84C177.929 2176.27 209.217 2062.4 204.677 2007.68C200.136 1952.96 210.136 1916.72 174.155 1848.04Z" fill="url(#paint25_linear_74_1633)" stroke="black" stroke-width="0.727752"/>
<path id="Vector 1188" d="M628.632 1913.8C519.568 1871.28 283.831 1836.24 213.398 2036.25C194.709 2130.33 199.826 2171.83 204.72 2180.81C302.991 2086.29 525.353 1900.55 628.632 1913.8Z" fill="url(#paint26_linear_74_1633)"/>
<path id="Vector 1189" d="M70.9396 2019.54C75.8952 1997.14 76.5795 1954.44 71.5862 1931.94C62.7223 1891.99 29.747 1864.55 -2.96013 1843.06C-36.2429 1821.19 -60.5411 1794.01 -80.943 1760.12C-88.1964 1748.08 -92.8714 1777.53 -93.4173 1782.05C-96.6366 1808.71 -93.5712 1836.49 -78.8466 1859.19C-71.038 1871.22 -60.4566 1881.35 -53.5864 1894.03C-44.264 1911.25 -39.4609 1933.32 -33.2527 1951.8C-26.0021 1973.39 -20.4327 1995.62 -11.9379 2016.77C-4.55146 2035.16 6.22559 2052.29 12.6641 2071.03C30.6177 2123.28 35.8743 2173.87 22.6082 2227.66C12.6308 2268.11 5.8232 2308.49 -9.1184 2347.62C-20.2555 2376.79 -27.1503 2406.75 -40.0292 2435.29C-44.9919 2446.28 -50.5266 2456.79 -56.0196 2467.51C-59.1598 2473.64 -58.0371 2470.04 -61.9878 2463.13" stroke="black" stroke-width="5.09427" stroke-linecap="round"/>
<path id="Vector 1190" d="M75.6977 2233.38C56.9184 2217.92 44.3567 2191.84 35.7625 2169.61C24.4392 2140.33 19.3358 2112.38 28.5118 2081.58C37.0381 2052.97 58.0965 2034.3 79.2887 2014.82C111.978 1984.76 143.953 1955.2 161.832 1913.74C170.329 1894.03 174.516 1871.2 179.266 1850.23C179.667 1848.45 182.257 1837.53 183.632 1842.66C188.595 1861.19 200.417 1876.99 205.32 1895.99C213.301 1926.91 215.57 1956.11 214.94 1988C214.308 2019.93 210.642 2053.45 205.822 2084.98C202.825 2104.59 200.401 2124.41 197.856 2144.06C195.068 2165.59 182.916 2182.2 168.511 2197.8C158.224 2208.94 149.474 2221.24 135.668 2228.32C123.302 2234.67 111.899 2226.1 99.922 2230.56C92.7187 2233.24 92.1302 2243.58 88.2463 2248.84C77.6125 2263.25 64.3572 2276.31 55.4183 2291.79C35.4116 2326.45 13.3023 2359.98 -7.11267 2394.44C-35.1698 2441.8 -59.9505 2491.77 -91.2048 2537.02" stroke="black" stroke-width="5.09427" stroke-linecap="round"/>
<path id="Vector 1191" d="M186.853 1880.75C180.974 1886.21 179.124 1903.05 176.65 1910.71C171.408 1926.94 164.801 1942.97 160.075 1959.31C150.792 1991.41 149.796 2024.91 144.241 2057.73C139.774 2084.13 131.616 2110.72 123.411 2136.18C117.42 2154.78 108.65 2171.28 100.82 2189.06C87.5572 2219.18 73.2737 2247.72 56.1918 2275.9" stroke="black" stroke-width="5.09427" stroke-linecap="round"/>
<path id="Vector 1192" d="M300.636 1916.58C298.752 1919.07 301.737 1914.74 304.247 1913.25C314.301 1907.26 323.548 1899.9 333.98 1894.54C369.729 1876.19 411.053 1870.01 450.635 1868.48C486.607 1867.09 521.653 1871.08 556.29 1881.28C579.707 1888.18 601.456 1898.24 624.12 1906.99C624.756 1907.24 612.563 1906.75 610.015 1907.07C585.947 1910.04 564.621 1920.57 542.645 1929.92C515.561 1941.43 486.419 1947.41 461.71 1964.08C426.044 1988.15 390.839 2013.54 357.7 2040.98C316.459 2075.12 271.102 2104.41 233.176 2142.36C197.877 2177.69 162.206 2212.57 126.117 2247.1C92.7893 2279 62.9041 2314.07 31.0219 2347.36C-4.1423 2384.08 -35.0783 2428.24 -58.4953 2473.35C-71.8429 2499.05 -85.8016 2526.12 -95.0708 2553.58C-96.5116 2557.85 -98.2127 2576.21 -101.851 2566.95" stroke="black" stroke-width="5.82202" stroke-linecap="round"/>
<path id="Vector 1193" d="M574.833 1906.54C567.975 1900.85 559.684 1902.82 551.281 1903.42C539.081 1904.28 526.919 1904.67 514.688 1904.82C487.757 1905.15 458.735 1916.34 435.352 1928.86C418.002 1938.15 406.96 1952.94 392.07 1965.11C364.851 1987.37 338.331 2009.57 312.35 2033.25C295.502 2048.6 278.404 2063.7 261.456 2078.94C246.534 2092.36 237.143 2102.92 230.743 2121.89" stroke="black" stroke-width="5.82202" stroke-linecap="round"/>
</g>
<defs>
<linearGradient id="paint0_linear_74_1633" x1="474.041" y1="3101" x2="474.041" y2="3188.11" gradientUnits="userSpaceOnUse">
<stop stop-color="#35CC32"/>
<stop offset="1" stop-color="#175716"/>
</linearGradient>
<linearGradient id="paint1_linear_74_1633" x1="459.176" y1="3084.05" x2="459.176" y2="3168.19" gradientUnits="userSpaceOnUse">
<stop stop-color="#36B733"/>
<stop offset="1" stop-color="#1C431B"/>
</linearGradient>
<linearGradient id="paint2_linear_74_1633" x1="297.151" y1="2936.59" x2="297.151" y2="3099.69" gradientUnits="userSpaceOnUse">
<stop stop-color="#3BDA38"/>
<stop offset="0.994792" stop-color="#1D961B"/>
</linearGradient>
<linearGradient id="paint3_linear_74_1633" x1="391.037" y1="3004.68" x2="391.037" y2="3207.73" gradientUnits="userSpaceOnUse">
<stop stop-color="#3BDA38"/>
<stop offset="1" stop-color="#1B701A"/>
</linearGradient>
<linearGradient id="paint4_linear_74_1633" x1="410.196" y1="3269.61" x2="391.513" y2="3366.26" gradientUnits="userSpaceOnUse">
<stop stop-color="#FFD6B5"/>
<stop offset="1" stop-color="#6C3E19"/>
</linearGradient>
<linearGradient id="paint5_linear_74_1633" x1="99.9289" y1="3113.31" x2="45.7017" y2="3271.26" gradientUnits="userSpaceOnUse">
<stop stop-color="#3BDA38"/>
<stop offset="1" stop-color="#1B701A"/>
</linearGradient>
<linearGradient id="paint6_linear_74_1633" x1="123.886" y1="3228.72" x2="102.722" y2="3290.37" gradientUnits="userSpaceOnUse">
<stop stop-color="#35CC32"/>
<stop offset="1" stop-color="#175716"/>
</linearGradient>
<linearGradient id="paint7_linear_74_1633" x1="78.0251" y1="3198.74" x2="45.9299" y2="3292.22" gradientUnits="userSpaceOnUse">
<stop stop-color="#30B82E"/>
<stop offset="1" stop-color="#378536"/>
</linearGradient>
<linearGradient id="paint8_linear_74_1633" x1="44.4067" y1="3142.17" x2="8.41471" y2="3247" gradientUnits="userSpaceOnUse">
<stop stop-color="#3BDA38"/>
<stop offset="1" stop-color="#2C702B"/>
</linearGradient>
<linearGradient id="paint9_linear_74_1633" x1="14.7838" y1="3320.99" x2="6.38823" y2="3380.66" gradientUnits="userSpaceOnUse">
<stop stop-color="#FFD6B5"/>
<stop offset="1" stop-color="#6C3E19"/>
</linearGradient>
<linearGradient id="paint10_linear_74_1633" x1="397.939" y1="227.988" x2="484.818" y2="398.848" gradientUnits="userSpaceOnUse">
<stop stop-color="#3BDA38"/>
<stop offset="1" stop-color="#2C702B"/>
</linearGradient>
<linearGradient id="paint11_linear_74_1633" x1="235.509" y1="306.697" x2="313.771" y2="460.613" gradientUnits="userSpaceOnUse">
<stop stop-color="#3BDA38"/>
<stop offset="0.994792" stop-color="#1D961B"/>
</linearGradient>
<linearGradient id="paint12_linear_74_1633" x1="356.776" y1="325.895" x2="454.212" y2="517.516" gradientUnits="userSpaceOnUse">
<stop stop-color="#3BDA38"/>
<stop offset="1" stop-color="#1B701A"/>
</linearGradient>
<linearGradient id="paint13_linear_74_1633" x1="162.226" y1="594.029" x2="36.9684" y2="760.711" gradientUnits="userSpaceOnUse">
<stop stop-color="#3BDA38"/>
<stop offset="1" stop-color="#1B701A"/>
</linearGradient>
<linearGradient id="paint14_linear_74_1633" x1="26.1667" y1="650.11" x2="-22.7212" y2="715.166" gradientUnits="userSpaceOnUse">
<stop stop-color="#35CC32"/>
<stop offset="1" stop-color="#175716"/>
</linearGradient>
<linearGradient id="paint15_linear_74_1633" x1="89.2826" y1="676.505" x2="15.1468" y2="775.159" gradientUnits="userSpaceOnUse">
<stop stop-color="#30B82E"/>
<stop offset="1" stop-color="#378536"/>
</linearGradient>
<linearGradient id="paint16_linear_74_1633" x1="171.3" y1="671.625" x2="88.163" y2="782.257" gradientUnits="userSpaceOnUse">
<stop stop-color="#3BDA38"/>
<stop offset="1" stop-color="#2C702B"/>
</linearGradient>
<linearGradient id="paint17_linear_74_1633" x1="223.617" y1="1039.09" x2="304.48" y2="1108.34" gradientUnits="userSpaceOnUse">
<stop stop-color="#35CC32"/>
<stop offset="1" stop-color="#175716"/>
</linearGradient>
<linearGradient id="paint18_linear_74_1633" x1="263.344" y1="958.883" x2="385.969" y2="1063.91" gradientUnits="userSpaceOnUse">
<stop stop-color="#30B82E"/>
<stop offset="1" stop-color="#378536"/>
</linearGradient>
<linearGradient id="paint19_linear_74_1633" x1="359.153" y1="923.798" x2="423.054" y2="978.528" gradientUnits="userSpaceOnUse">
<stop stop-color="#36B733"/>
<stop offset="1" stop-color="#1C431B"/>
</linearGradient>
<linearGradient id="paint20_linear_74_1633" x1="95.5102" y1="200.893" x2="77.8902" y2="258.778" gradientUnits="userSpaceOnUse">
<stop stop-color="#35CC32"/>
<stop offset="1" stop-color="#175716"/>
</linearGradient>
<linearGradient id="paint21_linear_74_1633" x1="51.9791" y1="174.574" x2="25.2594" y2="262.353" gradientUnits="userSpaceOnUse">
<stop stop-color="#30B82E"/>
<stop offset="1" stop-color="#378536"/>
</linearGradient>
<linearGradient id="paint22_linear_74_1633" x1="-4.65885" y1="187.005" x2="-18.583" y2="232.748" gradientUnits="userSpaceOnUse">
<stop stop-color="#36B733"/>
<stop offset="1" stop-color="#1C431B"/>
</linearGradient>
<linearGradient id="paint23_linear_74_1633" x1="438.654" y1="1594.87" x2="104.781" y2="2173.16" gradientUnits="userSpaceOnUse">
<stop stop-color="#3BDA38"/>
<stop offset="1" stop-color="#1B701A"/>
</linearGradient>
<linearGradient id="paint24_linear_74_1633" x1="27.741" y1="1825.69" x2="-102.569" y2="2051.4" gradientUnits="userSpaceOnUse">
<stop stop-color="#35CC32"/>
<stop offset="1" stop-color="#175716"/>
</linearGradient>
<linearGradient id="paint25_linear_74_1633" x1="238.591" y1="1885.24" x2="40.9829" y2="2227.51" gradientUnits="userSpaceOnUse">
<stop stop-color="#30B82E"/>
<stop offset="1" stop-color="#378536"/>
</linearGradient>
<linearGradient id="paint26_linear_74_1633" x1="497.463" y1="1838.06" x2="275.862" y2="2221.89" gradientUnits="userSpaceOnUse">
<stop stop-color="#3BDA38"/>
<stop offset="1" stop-color="#2C702B"/>
</linearGradient>
<clipPath id="clip0_74_1633">
<rect width="429" height="3367" fill="white"/>
</clipPath>
</defs>
</svg>
