<svg width="516" height="5138" viewBox="0 0 516 5138" fill="none" xmlns="http://www.w3.org/2000/svg">
<g id="Frame 23" clip-path="url(#clip0_50_1123)">
<rect width="515.034" height="5138" fill="url(#paint0_linear_50_1123)"/>
<path id="Vector" fill-rule="evenodd" clip-rule="evenodd" d="M440.923 4639.07C508.91 4706.55 478.849 4826.65 433.945 4917.11C390.552 5004.52 301.794 5061.36 209.236 5105.8C112.901 5152.05 7.08852 5196.16 -90.7765 5169.06C-191.102 5141.27 -254.112 5056.95 -291.666 4967.06C-328.292 4879.39 -364.712 4763.41 -291.758 4687.97C-219.479 4613.23 -95.6375 4669.38 8.26469 4656.91C57.3849 4651.01 100.569 4637.01 149.688 4634.99C251.048 4630.81 374.844 4573.49 440.923 4639.07Z" fill="url(#paint1_linear_50_1123)"/>
<path id="Vector_2" fill-rule="evenodd" clip-rule="evenodd" d="M403.323 3577.67C462.427 3545.8 546.569 3499.6 597.647 3543.2C656.294 3593.26 573.285 3712.07 626.343 3768.02C692.082 3837.34 838.729 3776.57 893.315 3854.98C940.607 3922.92 913.714 4037.75 854.027 4095.08C792.177 4154.49 685.355 4103.04 604.711 4132.22C542.209 4154.83 509.948 4234.61 444.065 4243.39C374.877 4252.62 306.116 4219.85 249.046 4179.65C190.913 4138.7 121.062 4086.28 120.077 4015.17C119.048 3940.9 207.918 3900.43 244.28 3835.67C267.104 3795.03 268.36 3747.23 292.82 3707.55C323.265 3658.16 352.258 3605.2 403.323 3577.67Z" fill="url(#paint2_linear_50_1123)"/>
<path id="Vector_3" fill-rule="evenodd" clip-rule="evenodd" d="M773.365 2204.03C713.514 2266.22 628.636 2355.78 549.008 2322.45C457.58 2284.18 512.585 2106.17 425.689 2058.49C318.022 1999.42 162.346 2131.34 64.7678 2056.77C-19.772 1992.16 -31.897 1841.04 18.6765 1747.44C71.0832 1650.45 222.031 1671.53 309.306 1604.19C376.946 1551.99 385.143 1441.67 462.345 1405.07C543.421 1366.64 640.447 1379.78 726.078 1406.6C813.304 1433.93 919.376 1470.7 948.475 1557.36C978.866 1647.86 885.956 1732.27 866.845 1825.8C854.85 1884.51 872.063 1943.52 857.686 2001.69C839.792 2074.09 825.076 2150.29 773.365 2204.03Z" fill="url(#paint3_linear_50_1123)"/>
<path id="Vector_4" fill-rule="evenodd" clip-rule="evenodd" d="M412.319 2874.59C410.828 2984.4 316.611 3089.37 210.892 3119.3C113.704 3146.82 32.3918 3051.94 -58.5364 3007.91C-122.555 2976.92 -187.994 2956.56 -235.153 2903.33C-297.717 2832.72 -395.394 2752.24 -363.755 2663.42C-331.909 2574 -195.057 2601.45 -111.54 2556.28C-32.1936 2513.36 16.902 2386.98 104.051 2410.4C191.163 2433.8 167.452 2569.52 217.337 2644.64C275.128 2731.66 413.736 2770.18 412.319 2874.59Z" fill="url(#paint4_linear_50_1123)"/>
<path id="Vector_5" fill-rule="evenodd" clip-rule="evenodd" d="M74.4315 802.921C3.67518 833.966 19.9348 1001.22 -56.2909 988.622C-137.521 975.199 -90.7865 822.437 -150.483 765.754C-196.533 722.028 -290.161 772.993 -332.872 726.002C-373.693 681.092 -363.71 606.942 -348.16 548.271C-333.121 491.534 -291.845 446.993 -248.443 407.466C-207.404 370.091 -161.552 329.305 -106.068 327.792C-52.5092 326.331 -19.358 394.731 33.9823 399.763C115.783 407.48 200.327 324.762 272.761 363.53C339.392 399.191 339.851 496.195 353.151 570.586C367.444 650.526 414.849 757.273 352.457 809.282C279.776 869.868 161.08 764.903 74.4315 802.921Z" fill="url(#paint5_linear_50_1123)"/>
</g>
<defs>
<linearGradient id="paint0_linear_50_1123" x1="273.612" y1="1003.14" x2="228.556" y2="5137.68" gradientUnits="userSpaceOnUse">
<stop stop-color="#E5F2F0"/>
<stop offset="1" stop-color="#A6B1AF"/>
</linearGradient>
<linearGradient id="paint1_linear_50_1123" x1="462.697" y1="4666.91" x2="-277.809" y2="4998.44" gradientUnits="userSpaceOnUse">
<stop stop-color="#3FD9BE"/>
<stop offset="0.895349" stop-color="#20E2EE"/>
</linearGradient>
<linearGradient id="paint2_linear_50_1123" x1="426.703" y1="3548.29" x2="571.472" y2="4216.07" gradientUnits="userSpaceOnUse">
<stop stop-color="#3BC5AC"/>
<stop offset="0.5" stop-color="#9BECDA"/>
<stop offset="1" stop-color="#27FFCB"/>
</linearGradient>
<linearGradient id="paint3_linear_50_1123" x1="756.27" y1="2249.16" x2="317.101" y2="1488.5" gradientUnits="userSpaceOnUse">
<stop stop-color="#3BC5AC"/>
<stop offset="0.5" stop-color="#9BECDA"/>
<stop offset="1" stop-color="#27FFCB"/>
</linearGradient>
<linearGradient id="paint4_linear_50_1123" x1="426.275" y1="2847.77" x2="-356.309" y2="2634.83" gradientUnits="userSpaceOnUse">
<stop stop-color="#FFE3B5"/>
<stop offset="1" stop-color="#FFBF57"/>
</linearGradient>
<linearGradient id="paint5_linear_50_1123" x1="186.351" y1="906.58" x2="-145.223" y2="332.277" gradientUnits="userSpaceOnUse">
<stop stop-color="#F2971E"/>
<stop offset="1" stop-color="#FFBD66"/>
</linearGradient>
<clipPath id="clip0_50_1123">
<rect width="515.034" height="5138" fill="white"/>
</clipPath>
</defs>
</svg>
