<svg xmlns="http://www.w3.org/2000/svg" width="500" height="500" fill="none"><g filter="url(#a)"><path fill="url(#b)" d="M247.17 104.479c-61.951-.037-141.979 14.666-146.17 42.604 6.961 98.805 85.784 181.554 97.444 200.987 10.442 17.402 16.01 79.16 15.314 111.412 22.507 8.353 36.892 9.706 65.432 0 .696-25.059-6.961-82.872 11.833-111.412 18.794-28.539 98.147-99.539 107.893-196.991 0-24.362-66.128-46.55-151.746-46.6Z"/><path fill="#1B1B1B" fill-opacity=".38" d="M247.17 104.479c-61.951-.037-141.979 14.666-146.17 42.604 6.961 98.805 85.784 181.554 97.444 200.987 10.442 17.402 16.01 79.16 15.314 111.412 22.507 8.353 36.892 9.706 65.432 0 .696-25.059-6.961-82.872 11.833-111.412 18.794-28.539 98.147-99.539 107.893-196.991 0-24.362-66.128-46.55-151.746-46.6Z"/><ellipse cx="250" cy="152.5" fill="#181818" fill-opacity=".9" rx="149" ry="48.5"/><ellipse cx="250" cy="152.5" fill="url(#c)" rx="149" ry="48.5"/></g><path fill="#333" d="M293.077 31.567a4.854 4.854 0 0 0-6.865 0l-30.896 30.897a4.855 4.855 0 0 0 6.865 6.865l27.464-27.463 27.463 27.463a4.854 4.854 0 1 0 6.865-6.865l-30.896-30.896Zm1.422 124.111V35h-9.709v120.678h9.709ZM207.147 159.111a4.855 4.855 0 0 0 6.866 0l30.896-30.896a4.855 4.855 0 1 0-6.866-6.866l-27.463 27.463-27.463-27.463a4.855 4.855 0 1 0-6.866 6.866l30.896 30.896Zm8.288-124.11v-4.855h-9.71V35h9.71Zm0 120.677V35h-9.71v120.678h9.71Z"/><defs><linearGradient id="b" x1="110" x2="393.256" y1="97" y2="236.435" gradientUnits="userSpaceOnUse"><stop stop-color="#E9E9E9" stop-opacity=".35"/><stop offset="1" stop-color="#3E3E3E" stop-opacity=".9"/></linearGradient><linearGradient id="c" x1="144.095" x2="186.208" y1="43.748" y2="246.35" gradientUnits="userSpaceOnUse"><stop stop-color="#C4C4C4" stop-opacity=".62"/><stop offset="1" stop-color="#C4C4C4" stop-opacity="0"/></linearGradient><filter id="a" width="326" height="390.264" x="93" y="97" color-interpolation-filters="sRGB" filterUnits="userSpaceOnUse"><feFlood flood-opacity="0" result="BackgroundImageFix"/><feColorMatrix in="SourceAlpha" result="hardAlpha" values="0 0 0 0 0 0 0 0 0 0 0 0 0 0 0 0 0 0 127 0"/><feOffset dx="6" dy="7"/><feGaussianBlur stdDeviation="7"/><feComposite in2="hardAlpha" operator="out"/><feColorMatrix values="0 0 0 0 0 0 0 0 0 0 0 0 0 0 0 0 0 0 0.25 0"/><feBlend in2="BackgroundImageFix" result="effect1_dropShadow_271_637"/><feBlend in="SourceGraphic" in2="effect1_dropShadow_271_637" result="shape"/><feColorMatrix in="SourceAlpha" result="hardAlpha" values="0 0 0 0 0 0 0 0 0 0 0 0 0 0 0 0 0 0 127 0"/><feOffset dx="3" dy="2"/><feGaussianBlur stdDeviation="2.5"/><feComposite in2="hardAlpha" k2="-1" k3="1" operator="arithmetic"/><feColorMatrix values="0 0 0 0 1 0 0 0 0 1 0 0 0 0 1 0 0 0 0.21 0"/><feBlend in2="shape" result="effect2_innerShadow_271_637"/></filter></defs></svg>