<svg width="1280" height="561" viewBox="0 0 1280 561" fill="none" xmlns="http://www.w3.org/2000/svg">
<rect width="1279.17" height="560.492" fill="white" fill-opacity="0.8"/>
<path d="M1030.6 125.726C1017.7 120.875 1003.08 123.105 992.184 131.584C997.008 118.708 994.813 104.142 986.405 93.2823C999.306 98.1329 1013.93 95.9034 1024.82 87.4243C1020 100.3 1022.2 114.866 1030.6 125.726Z" fill="#00D092" stroke="#111111" stroke-width="3"/>
<rect x="581.047" y="479.418" width="119.169" height="43.5643" rx="21.7821" transform="rotate(-60.1611 581.047 479.418)" fill="#F2DA05" stroke="#111111" stroke-width="3"/>
<path d="M1064.13 311.658C1080.56 295.717 1102.56 286.762 1125.5 286.722C1148.93 286.682 1171.43 295.952 1188.03 312.495C1204.63 329.037 1213.97 351.496 1214.02 374.932C1214.06 397.867 1205.18 419.898 1189.29 436.387L1064.13 311.658Z" fill="#2F80ED" stroke="#111111" stroke-width="3"/>
<path d="M310.425 411C301.409 425.153 289.768 437.456 276.126 447.243C262.077 457.321 246.18 464.534 229.343 468.469C212.507 472.404 195.06 472.984 177.999 470.176C160.939 467.369 144.598 461.228 129.91 452.105C115.223 442.982 102.476 431.056 92.3972 417.007C82.3188 402.958 75.1062 387.061 71.1713 370.225C67.2364 353.388 66.6562 335.941 69.4639 318.881C72.1903 302.313 78.0597 286.425 86.7508 272.07L121.363 293.569C115.493 303.377 111.523 314.209 109.665 325.496C107.726 337.278 108.127 349.326 110.844 360.953C113.561 372.579 118.542 383.557 125.502 393.258C132.462 402.96 141.264 411.196 151.407 417.496C161.55 423.796 172.834 428.036 184.615 429.975C196.397 431.914 208.445 431.513 220.071 428.796C231.698 426.079 242.676 421.098 252.377 414.138C261.673 407.47 269.622 399.11 275.813 389.501L310.425 411Z" fill="#9B51E0" stroke="#111111" stroke-width="3"/>
<path d="M311.853 75.8374C306.038 77.7669 303.437 69.9298 297.623 71.8593C291.808 73.7888 294.409 81.626 288.594 83.5556C282.779 85.4851 280.179 77.6479 274.378 79.5729C268.563 81.5025 271.164 89.3397 265.363 91.2647C259.548 93.1943 256.947 85.3571 251.147 87.282C245.332 89.2116 247.932 97.0488 242.118 98.9783C236.303 100.908 233.703 93.0707 227.888 95.0002C222.074 96.9297 224.674 104.767 218.86 106.696C213.045 108.626 210.444 100.789 204.629 102.718C198.815 104.648 201.416 112.485 195.601 114.415" stroke="#111111" stroke-width="3" stroke-miterlimit="10" stroke-linecap="round"/>
<path d="M71.5 179L74.8761 188.124L84 191.5L74.8761 194.876L71.5 204L68.1239 194.876L59 191.5L68.1239 188.124L71.5 179Z" fill="black"/>
<path d="M71.5 419L74.8761 428.124L84 431.5L74.8761 434.876L71.5 444L68.1239 434.876L59 431.5L68.1239 428.124L71.5 419Z" fill="black"/>
<path d="M71.5 499L74.8761 508.124L84 511.5L74.8761 514.876L71.5 524L68.1239 514.876L59 511.5L68.1239 508.124L71.5 499Z" fill="black"/>
<path d="M151.5 179L154.876 188.124L164 191.5L154.876 194.876L151.5 204L148.124 194.876L139 191.5L148.124 188.124L151.5 179Z" fill="black"/>
<path d="M151.5 339L154.876 348.124L164 351.5L154.876 354.876L151.5 364L148.124 354.876L139 351.5L148.124 348.124L151.5 339Z" fill="black"/>
<path d="M151.5 499L154.876 508.124L164 511.5L154.876 514.876L151.5 524L148.124 514.876L139 511.5L148.124 508.124L151.5 499Z" fill="black"/>
<path d="M311.5 259L314.876 268.124L324 271.5L314.876 274.876L311.5 284L308.124 274.876L299 271.5L308.124 268.124L311.5 259Z" fill="black"/>
<path d="M311.5 339L314.876 348.124L324 351.5L314.876 354.876L311.5 364L308.124 354.876L299 351.5L308.124 348.124L311.5 339Z" fill="black"/>
<path d="M311.5 499L314.876 508.124L324 511.5L314.876 514.876L311.5 524L308.124 514.876L299 511.5L308.124 508.124L311.5 499Z" fill="black"/>
<path d="M391.5 499L394.876 508.124L404 511.5L394.876 514.876L391.5 524L388.124 514.876L379 511.5L388.124 508.124L391.5 499Z" fill="black"/>
</svg>
