<svg width="1280" height="2864" viewBox="0 0 1280 2864" fill="none" xmlns="http://www.w3.org/2000/svg">
<g clip-path="url(#clip0_103_2173)">
<rect width="1280" height="2864" fill="#242424"/>
<path fill-rule="evenodd" clip-rule="evenodd" d="M-186.138 2146.48C-209.459 2089.79 -210.694 2016.82 -176.473 1965.97C-142.183 1915.02 -68.0553 1915.3 -12.69 1888.74C37.9303 1864.46 85.6826 1791.27 136.059 1816.05C198.205 1846.63 191.25 1939.27 219.015 2002.74C230.381 2028.73 226.233 2066.87 251.448 2079.84C328.605 2119.52 450.694 2074.03 498.463 2146.48C532.44 2198.01 443.397 2258.95 393.383 2295.11C350.803 2325.89 294.738 2323.74 242.757 2331.36C206.954 2336.61 172.16 2330.35 136.059 2332.83C96.6994 2335.54 57.2938 2360.99 20.5404 2346.64C-16.6228 2332.14 -27.8074 2285.44 -56.469 2257.68C-98.0812 2217.38 -164.096 2200.06 -186.138 2146.48Z" fill="url(#paint0_linear_103_2173)"/>
<path fill-rule="evenodd" clip-rule="evenodd" d="M1014.05 3201.99C940.156 3229.48 876.939 3132.37 799.684 3116.65C761.638 3108.91 725.988 3141.7 687.646 3135.59C637.818 3127.64 590.389 3109.94 552.024 3077.17C496.113 3029.41 405.514 2979.15 420.169 2907.09C435.055 2833.89 541.645 2829.23 609.01 2796.96C652.204 2776.26 698.579 2772.94 742.066 2752.86C811.246 2720.93 863.96 2625.16 937.43 2645.36C1006.55 2664.36 1005.85 2765.86 1032.06 2832.58C1055.3 2891.7 1084.52 2948.37 1081.43 3011.82C1078.07 3080.68 1078.66 3177.95 1014.05 3201.99Z" fill="url(#paint1_linear_103_2173)"/>
<path fill-rule="evenodd" clip-rule="evenodd" d="M1158.3 793.54C1231.91 797.13 1262.82 668.775 1336.45 671.948C1407.57 675.011 1491.35 736.886 1494.2 808.011C1497.26 884.664 1383.42 910.602 1348.74 979.029C1322.86 1030.08 1354.35 1096.38 1323.58 1144.64C1284.6 1205.76 1224.81 1306.5 1158.3 1277.66C1077.77 1242.75 1138.84 1092.77 1072.2 1035.66C1015.18 986.791 900.455 1074.69 853.29 1016.25C812.834 966.133 892.637 898.556 911.933 837.103C931.514 774.744 902.697 665.315 967.059 653.935C1046.73 639.847 1077.49 789.599 1158.3 793.54Z" fill="url(#paint2_linear_103_2173)"/>
<path fill-rule="evenodd" clip-rule="evenodd" d="M1024.45 1583.92C1083.34 1628.24 1181 1539.39 1240.14 1583.37C1297.26 1625.85 1331.83 1724.1 1294.24 1784.55C1253.73 1849.69 1144.97 1807.21 1077.84 1844.35C1027.76 1872.06 1016.58 1944.6 964.011 1967.24C897.432 1995.92 791.39 2045.69 752.552 1984.48C705.532 1910.37 840.291 1820.58 817.229 1735.89C797.499 1663.44 653.211 1671.73 647.005 1596.89C641.682 1532.7 745.663 1521.61 796.142 1481.6C847.365 1441 884.981 1334.28 944.625 1361.01C1018.45 1394.1 959.801 1535.28 1024.45 1583.92Z" fill="url(#paint3_linear_103_2173)"/>
</g>
<defs>
<linearGradient id="paint0_linear_103_2173" x1="-203" y1="2081" x2="506" y2="2081" gradientUnits="userSpaceOnUse">
<stop stop-color="#FFC62C"/>
<stop offset="1" stop-color="#FFE59F"/>
</linearGradient>
<linearGradient id="paint1_linear_103_2173" x1="1053.79" y1="3171.79" x2="595.805" y2="2713.81" gradientUnits="userSpaceOnUse">
<stop stop-color="#FFC62C"/>
<stop offset="1" stop-color="#F8DF00"/>
</linearGradient>
<linearGradient id="paint2_linear_103_2173" x1="1168.13" y1="653" x2="1168.13" y2="1282.74" gradientUnits="userSpaceOnUse">
<stop stop-color="#FFC62C"/>
<stop offset="1" stop-color="#FFE59F"/>
</linearGradient>
<linearGradient id="paint3_linear_103_2173" x1="1111.51" y1="1473.16" x2="757.836" y2="1994.2" gradientUnits="userSpaceOnUse">
<stop stop-color="#FFC62C"/>
<stop offset="1" stop-color="#FFE59F"/>
</linearGradient>
<clipPath id="clip0_103_2173">
<rect width="1280" height="2864" fill="white"/>
</clipPath>
</defs>
</svg>
