<svg width="428" height="3705" viewBox="0 0 428 3705" fill="none" xmlns="http://www.w3.org/2000/svg">
<g id="per-phone-bg" clip-path="url(#clip0_103_2175)">
<rect width="428" height="3705" fill="#242424"/>
<path id="Vector" fill-rule="evenodd" clip-rule="evenodd" d="M760.045 3860.99C686.156 3888.48 622.939 3791.37 545.684 3775.65C507.637 3767.91 471.987 3800.7 433.646 3794.59C383.817 3786.64 336.388 3768.94 298.023 3736.17C242.112 3688.41 151.514 3638.15 166.168 3566.09C181.055 3492.89 287.644 3488.23 355.009 3455.96C398.204 3435.26 444.579 3431.94 488.065 3411.86C557.245 3379.93 609.96 3284.16 683.429 3304.36C752.545 3323.36 751.849 3424.86 778.064 3491.58C801.297 3550.7 830.522 3607.37 827.427 3670.82C824.068 3739.68 824.656 3836.95 760.045 3860.99Z" fill="url(#paint0_linear_103_2175)"/>
<path id="Vector_2" fill-rule="evenodd" clip-rule="evenodd" d="M-251.754 2767.45C-271.457 2719.55 -272.5 2657.9 -243.588 2614.94C-214.616 2571.88 -151.986 2572.12 -105.209 2549.68C-62.4399 2529.17 -22.0943 2467.33 20.4681 2488.27C72.9748 2514.1 67.0988 2592.38 90.5569 2646C100.161 2667.96 96.6557 2700.18 117.96 2711.14C183.149 2744.67 286.301 2706.23 326.661 2767.45C355.368 2810.99 280.136 2862.47 237.88 2893.02C201.904 2919.03 154.535 2917.21 110.617 2923.65C80.3667 2928.08 50.9694 2922.8 20.4681 2924.89C-12.7863 2927.18 -46.0797 2948.68 -77.1324 2936.56C-108.531 2924.3 -117.981 2884.85 -142.197 2861.4C-177.355 2827.35 -233.131 2812.72 -251.754 2767.45Z" fill="url(#paint1_linear_103_2175)"/>
<path id="Vector_3" fill-rule="evenodd" clip-rule="evenodd" d="M515.241 1532.33C564.997 1569.77 647.508 1494.71 697.475 1531.87C745.736 1567.76 774.947 1650.77 743.186 1701.84C708.958 1756.88 617.066 1720.99 560.351 1752.37C518.037 1775.78 508.592 1837.06 464.178 1856.2C407.926 1880.43 318.332 1922.48 285.518 1870.76C245.791 1808.14 359.648 1732.28 340.164 1660.73C323.493 1599.51 201.586 1606.52 196.342 1543.29C191.845 1489.06 279.697 1479.68 322.347 1445.88C365.625 1411.58 397.406 1321.41 447.799 1344C510.177 1371.95 460.621 1491.23 515.241 1532.33Z" fill="url(#paint2_linear_103_2175)"/>
<path id="Vector_4" fill-rule="evenodd" clip-rule="evenodd" d="M1.2373 649.741C63.4324 652.774 89.5445 544.328 151.756 547.009C211.841 549.597 282.631 601.874 285.036 661.968C287.628 726.731 191.442 748.646 162.139 806.46C140.276 849.594 166.881 905.606 140.879 946.38C107.946 998.023 57.4334 1083.13 1.2373 1058.77C-66.7994 1029.27 -15.2024 902.561 -71.5078 854.304C-119.681 813.017 -216.612 887.28 -256.461 837.911C-290.642 795.563 -223.217 738.468 -206.914 686.547C-190.37 633.861 -214.718 541.405 -160.338 531.79C-93.0271 519.888 -67.037 646.412 1.2373 649.741Z" fill="url(#paint3_linear_103_2175)"/>
</g>
<defs>
<linearGradient id="paint0_linear_103_2175" x1="799.791" y1="3830.79" x2="341.805" y2="3372.81" gradientUnits="userSpaceOnUse">
<stop stop-color="#FFC62C"/>
<stop offset="1" stop-color="#F8DF00"/>
</linearGradient>
<linearGradient id="paint1_linear_103_2175" x1="-266" y1="2712.12" x2="333.029" y2="2712.12" gradientUnits="userSpaceOnUse">
<stop stop-color="#FFC62C"/>
<stop offset="1" stop-color="#FFE59F"/>
</linearGradient>
<linearGradient id="paint2_linear_103_2175" x1="588.802" y1="1438.75" x2="289.983" y2="1878.97" gradientUnits="userSpaceOnUse">
<stop stop-color="#FFC62C"/>
<stop offset="1" stop-color="#FFE59F"/>
</linearGradient>
<linearGradient id="paint3_linear_103_2175" x1="9.54373" y1="531" x2="9.54373" y2="1063.06" gradientUnits="userSpaceOnUse">
<stop stop-color="#FFC62C"/>
<stop offset="1" stop-color="#FFE59F"/>
</linearGradient>
<clipPath id="clip0_103_2175">
<rect width="428" height="3705" fill="white"/>
</clipPath>
</defs>
</svg>
